<?xml version="1.0" standalone="no"?>
<!DOCTYPE svg PUBLIC "-//W3C//DTD SVG 1.1//EN" "http://www.w3.org/Graphics/SVG/1.1/DTD/svg11.dtd" >
<!--
2013-9-30: Created.
-->
<svg>
<metadata>
Created by iconfont
</metadata>
<defs>

<font id="iconfont" horiz-adv-x="1024" >
  <font-face
    font-family="iconfont"
    font-weight="500"
    font-stretch="normal"
    units-per-em="1024"
    ascent="896"
    descent="-128"
  />
    <missing-glyph />
    
    <glyph glyph-name="archives" unicode="&#59206;" d="M640 832h256c35.346 0 64-28.654 64-64v-768c0-35.346-28.654-64-64-64H640c-35.346 0-64 28.654-64 64V768c0 35.346 28.654 64 64 64z m32-128v-384h192V704H672z m96.032-671c53.01 0 95.968 42.946 95.968 95.998C864 181.99 821.04 225 768.032 225 714.96 225 672 181.99 672 128.99800000000005 672 75.94500000000005 714.96 33 768.032 33zM128 832h256c35.346 0 64-28.654 64-64v-768c0-35.346-28.654-64-64-64H128c-35.346 0-64 28.654-64 64V768c0 35.346 28.654 64 64 64z m32-128v-384h192V704H160z m96.032-671c53.01 0 95.968 42.946 95.968 95.998C352 181.99 309.04 225 256.032 225 202.96 225 160 181.99 160 128.99800000000005 160 75.94500000000005 202.96 33 256.032 33z"  horiz-adv-x="1024" />

    
    <glyph glyph-name="report" unicode="&#59207;" d="M128 575h128c35.346 0 64-28.654 64-64v-511c0-35.346-28.654-64-64-64H128c-35.346 0-64 28.654-64 64V511c0 35.346 28.654 64 64 64zM448 832h128c35.346 0 64-28.654 64-64v-768c0-35.346-28.654-64-64-64H448c-35.346 0-64 28.654-64 64V768c0 35.346 28.654 64 64 64z m320-448h128c35.346 0 64-28.654 64-64v-320c0-35.346-28.654-64-64-64H768c-35.346 0-64 28.654-64 64V320c0 35.346 28.654 64 64 64z"  horiz-adv-x="1024" />

    
    <glyph glyph-name="warning" unicode="&#59208;" d="M568.44 764.517l378.884-709.59c16.648-31.18 4.868-69.952-26.312-86.6a64 64 0 0 0-30.145-7.544H133.121c-35.346 0-64 28.654-64 64a64 64 0 0 0 7.543 30.144l378.864 709.589c16.648 31.18 55.42 42.961 86.6 26.313a64 64 0 0 0 26.313-26.312zM512 576c-35.346 0-64-28.654-64-64v-192c0-35.346 28.654-64 64-64 35.346 0 64 28.654 64 64V512c0 35.346-28.654 64-64 64z m0-512c35.346 0 64 28.654 64 64 0 35.346-28.654 64-64 64-35.346 0-64-28.654-64-64 0-35.346 28.654-64 64-64z"  horiz-adv-x="1024" />

    
    <glyph glyph-name="locate" unicode="&#59210;" d="M878.25 479.041c-0.035-54.284-13.15-107.82-38.315-156.399h1.419a2404.111 2404.111 0 0 0-55.255-91.164c-0.119-0.2-0.148-0.399-0.296-0.626a2486.894 2486.894 0 0 0-35.507-54.278l-0.946-1.394a1920.476 1920.476 0 0 0-55.64-78.641l-2.305-3.074a1141.16 1141.16 0 0 0-57.414-70.728 641.991 641.991 0 0 0-24.124-26.043l-0.414-0.456h-0.06c-18.24-18.585-36.275-34.866-53.392-46.535-26.53-18.27-62.193-18.27-88.722 0-17.118 11.67-35.152 27.95-53.423 46.535h-0.03a634.283 634.283 0 0 0-18.063 19.27c-2.217 2.419-4.405 4.895-6.622 7.371a1129.308 1129.308 0 0 0-57.118 70.358l-2.661 3.558A1927.792 1927.792 0 0 0 273.9 175.17999999999995l-0.917 1.394c-12.712 18.956-24.863 37.457-35.536 54.306l-0.266 0.598c-33.437 52.712-55.285 91.164-55.285 91.164h1.42C159.012 369.832 145 422.8 145 479.042 145 673.977 309.14 832 511.625 832S878.25 673.9780000000001 878.25 479.041zM512 702c-106.039 0-192-85.961-192-192s85.961-192 192-192 192 85.961 192 192-85.961 192-192 192z"  horiz-adv-x="1024" />

    
    <glyph glyph-name="strategy" unicode="&#59211;" d="M587.75 305.94500000000005l90.624 21.769V440.13l-90.624 21.84c-2.873 8.271-5.939 16.277-9.561 24.037l48.934 80.97-77.497 79.464-78.97-50.142a223.276 223.276 0 0 1-23.437 9.764l-21.312 92.923H316.346L295.098 606c-8-2.882-15.815-5.957-23.341-9.77l-78.97 50.206-77.593-79.47 49.03-80.97a203.764 203.764 0 0 1-9.53-24.037L64 440.131V327.74l90.688-21.794c2.81-8.207 5.875-16.27 9.53-23.94l-48.967-81.009 77.53-79.483 78.97 50.238c7.532-3.773 15.34-6.855 23.34-9.744l21.248-92.988h109.562l21.312 92.924a236.499 236.499 0 0 1 23.373 9.705l78.97-50.251 77.49 79.483-48.87 81.099c3.635 7.683 6.7 15.76 9.574 23.966z m-216.563-33.523c-60.096 0-108.78 49.928-108.78 111.578 0 61.553 48.748 111.571 108.78 111.571C431.283 495.571 480 445.553 480 384c0-61.65-48.717-111.578-108.813-111.578z m536.064-4.29l-60.877 37.102-32.128-44.288c-6.688 1.15-13.497 2.12-20.652 2.12-7.002 0-13.876-0.97-20.653-2.12l-32.09 44.288-60.934-37.102 19.565-49.47a130.354 130.354 0 0 1-23.252-40.12l-49.062-6.79v-74.205l49.062-6.726a126.68 126.68 0 0 1 23.252-40.256l-19.565-49.456L740.864-36l32.064 44.346c6.688-1.235 13.626-2.094 20.685-2.094 7.001 0 13.875 0.937 20.627 2.094l32-44.346 60.934 37.076-19.5 49.405a129.457 129.457 0 0 1 23.315 40.333l48.998 6.727v74.204l-48.998 6.778a129.17 129.17 0 0 1-23.239 40.14l19.501 49.469zM793.626 70.745c-34.503 0-62.439 28.585-62.439 63.898 0 35.39 27.936 63.956 62.439 63.956C828 198.60000000000002 856 170.02599999999995 856 134.64300000000003c0-35.377-28-63.898-62.374-63.898zM887.75 717.44l19.501 49.483L846.374 804l-32.128-44.287c-6.688 1.189-13.497 2.08-20.652 2.08-7.002 0-13.876-0.956-20.653-2.08L740.877 804l-60.935-37.07 19.565-49.482a130.712 130.712 0 0 1-23.251-40.178l-49.062-6.727V596.3l49.062-6.765a126.607 126.607 0 0 1 23.251-40.21l-19.571-49.483 60.934-37.082 32.064 44.287c6.688-1.182 13.626-2.113 20.666-2.113 7.027 0 13.875 0.995 20.653 2.113l32.128-44.287 60.877 37.082-19.501 49.412c10.003 11.818 18.003 25.31 23.251 40.275L960 596.3v74.243l-48.998 6.714a128.38 128.38 0 0 1-23.252 40.184z m-94.124-147.963c-34.503 0-62.439 28.619-62.439 63.892 0 35.377 27.936 63.989 62.439 63.989C828 697.359 856 668.7470000000001 856 633.37c0-35.28-28-63.892-62.374-63.892z"  horiz-adv-x="1024" />

    
    <glyph glyph-name="monitor" unicode="&#59212;" d="M624 192v-128h47.5c17.95 0 32.5-14.55 32.5-32.5S689.45-1 671.5-1h-319c-17.95 0-32.5 14.55-32.5 32.5s14.55 32.5 32.5 32.5H400V192H128c-35.346 0-64 28.654-64 64V704c0 35.346 28.654 64 64 64h768c35.346 0 64-28.654 64-64v-448c0-35.346-28.654-64-64-64H624zM128 368v-56.018C128 281.1 150.105 256 177.442 256h669.086C873.864 256 896 281.1 896 311.98199999999997V368H128z"  horiz-adv-x="1024" />

    
    <glyph glyph-name="log" unicode="&#59213;" d="M192 64h-64c-35.346 0-64 28.654-64 64 0 35.346 28.654 64 64 64h64V320h-64c-35.346 0-64 28.654-64 64 0 35.346 28.654 64 64 64h64V576h-64c-35.346 0-64 28.654-64 64 0 35.346 28.654 64 64 64h64v64c0 35.346 28.654 64 64 64h640c35.346 0 64-28.654 64-64v-768c0-35.346-28.654-64-64-64H256c-35.346 0-64 28.654-64 64v64z m64 0c0-35.346 28.654-64 64-64h128V768H320c-35.346 0-64-28.654-64-64v-640z m0 640h128v-128H256V704z m0-256h128v-128H256V448z m0-256h128v-128H256V192z"  horiz-adv-x="1024" />

    
    <glyph glyph-name="approved" unicode="&#59214;" d="M676.571 337.28599999999994c-109.694 109.714-30.777 98.743 10.8 163.727 24.029 33.158 45.103 80.884 43.886 132.501C731.257 743.23 633.673 831 511.83 831 389.927 831 292.4 743.229 292.4 633.514c0-47.418 12.63-97.895 41.981-132.5C380.503 436.028 459.44 447 347.43 337.28499999999997H248c-66.274 0-120-53.726-120-120V63h768V217.28599999999994c0 66.274-53.726 120-120 120h-99.429zM128-1h768v-63H128z"  horiz-adv-x="1024" />

    
    <glyph glyph-name="business" unicode="&#59215;" d="M458.807 462.035C436.049 497.5 396.269 521 351 521c-70.692 0-128-57.308-128-128 0-70.692 57.308-128 128-128 31.351 0 60.07 11.271 82.325 29.983l122.09-70.489A96.306 96.306 0 0 1 553 203c0-53.02 42.98-96 96-96s96 42.98 96 96-42.98 96-96 96c-22.348 0-42.912-7.636-59.226-20.442L470.62 347.352C476.034 361.53 479 376.919 479 393c0 2.48-0.07 4.943-0.21 7.388l161.15 82.11C656.932 467.265 679.384 458 704 458c53.02 0 96 42.98 96 96s-42.98 96-96 96-96-42.98-96-96c0-5.217 0.416-10.336 1.217-15.327l-150.41-76.638zM192 832h640c70.692 0 128-57.308 128-128v-640c0-70.692-57.308-128-128-128H192c-70.692 0-128 57.308-128 128V704c0 70.692 57.308 128 128 128z"  horiz-adv-x="1024" />

    
    <glyph glyph-name="home" unicode="&#59216;" d="M877.842 321.69100000000003V16.840000000000032c0-11.002-4.024-20.527-12.072-28.575-8.048-8.049-17.573-12.072-28.575-12.072h-243.88v243.88H430.726v-243.88h-243.88c-11.001 0-20.526 4.024-28.575 12.072-8.048 8.047-12.072 17.572-12.072 28.575V321.69000000000005c0 0.434 0.109 1.07 0.326 1.91 0.217 0.841 0.325 1.478 0.324 1.911l365.17 301.03 365.172-301.03c0.434-0.841 0.65-2.115 0.65-3.822v0.001z m141.614 43.818l-39.387-46.989c-3.387-3.82-7.83-6.15-13.332-6.99h-1.911c-5.5 0-9.944 1.476-13.332 4.43L511.979 682.4300000000001 72.466 315.96000000000004c-5.068-3.387-10.15-4.864-15.243-4.43-5.501 0.84-9.945 3.17-13.332 6.99L4.504 365.51c-3.387 4.227-4.864 9.2-4.43 14.917 0.433 5.718 2.764 10.27 6.99 13.658l456.628 380.413C477.24 785.5 493.336 791 511.979 791c18.644 0 34.74-5.5 48.289-16.503l154.987-129.542V768.808c0 5.934 1.91 10.798 5.731 14.592 3.821 3.794 8.685 5.704 14.592 5.73h121.94c5.936 0 10.8-1.91 14.594-5.73 3.793-3.82 5.704-8.685 5.73-14.593v-259.123l139.093-115.6c4.227-3.387 6.558-7.939 6.991-13.657 0.434-5.718-1.043-10.69-4.43-14.917l-0.04-0.001z"  horiz-adv-x="1024" />

    
    <glyph glyph-name="network" unicode="&#59217;" d="M800 384H544v-192h32c35.346 0 64-28.654 64-64v-128c0-35.346-28.654-64-64-64H448c-35.346 0-64 28.654-64 64V128c0 35.346 28.654 64 64 64h32V384H224v-192h32c35.346 0 64-28.654 64-64v-128c0-35.346-28.654-64-64-64H128c-35.346 0-64 28.654-64 64V128c0 35.346 28.654 64 64 64h32V448h320V576h-32c-35.346 0-64 28.654-64 64V768c0 35.346 28.654 64 64 64h128c35.346 0 64-28.654 64-64v-128c0-35.346-28.654-64-64-64h-32v-128h320v-256h32c35.346 0 64-28.654 64-64v-128c0-35.346-28.654-64-64-64H768c-35.346 0-64 28.654-64 64V128c0 35.346 28.654 64 64 64h32V384z"  horiz-adv-x="1024" />

    
    <glyph glyph-name="system" unicode="&#59218;" d="M832.587 471.346c-8.446 25.358-16.892 50.717-30.969 73.258l53.492 53.534c22.522 22.541 22.522 61.988 0 84.529l-42.23 42.264c-22.523 22.54-61.938 22.54-84.46 0l-53.492-53.535c-22.523 11.27-45.045 19.723-67.568 28.176V772.83c0 33.812-28.153 59.17-59.122 59.17h-59.122c-33.784 0-59.122-28.176-59.122-59.17v-73.258c-25.338-5.635-47.86-16.905-70.384-28.176l-59.122 53.535c-25.338 22.54-61.937 22.54-87.275 0l-42.23-42.264c-22.523-25.359-22.523-61.988 0-87.346l53.491-53.535c-11.261-22.54-22.522-45.082-28.153-70.44h-73.199C89.338 471.346 64 443.17 64 412.176v-59.17c0-33.811 28.153-59.17 59.122-59.17h73.199c5.63-22.54 16.892-47.899 28.153-67.622l-53.491-53.535c-22.523-22.54-22.523-61.987 0-84.528l42.23-42.264c22.523-22.541 61.937-22.541 84.46 0l53.491 53.534c22.523-14.088 47.861-22.54 73.2-30.993v-73.258c0-33.812 28.152-59.17 59.121-59.17h59.122c33.784 0 59.122 28.176 59.122 59.17v73.258c25.338 5.635 47.861 16.905 70.384 28.176l50.676-50.717c22.523-22.541 61.937-22.541 84.46 0l42.23 42.264c22.523 22.54 22.523 61.987 0 84.528l-50.676 50.717c11.261 22.541 22.523 45.082 28.153 70.44h73.2c33.783 0 59.121 28.177 59.121 59.17v59.17c5.63 30.994-22.523 59.17-53.491 59.17h-73.199zM512 256c-70 0-128 58-128 128s58 128 128 128 128-58 128-128-58-128-128-128z"  horiz-adv-x="1024" />

    
    <glyph glyph-name="user" unicode="&#59219;" d="M599.944-63H424.056C258.826-63 128-63 128 26.59299999999996v18.644C128 217.173 260.765 357 424.056 357h175.888C763.235 357 896 217.173 896 45.236999999999966v-18.644C896-63 758.874-63 599.944-63zM512 385c-123.57 0-224 100.495-224 224S388.43 833 512 833s224-100.495 224-224-100.43-224-224-224z"  horiz-adv-x="1024" />

    
    <glyph glyph-name="access" unicode="&#59220;" d="M206.48 448V552c0 154.64 136.786 280 305.52 280 143.228 0 262.26-90.72 295.255-212.688 2.75-10.192 10.266-48.944-42.895-63.952-43.262-12.264-71.614 28.392-76.197 43.176-25.179 80.542-111.278 131.756-201.798 120.036-90.52-11.72-157.769-82.79-157.616-166.572v-104H832c35.346 0 64-28.654 64-64v-384c0-35.346-28.654-64-64-64H192c-35.346 0-64 28.654-64 64V384c0 35.346 28.654 64 64 64h14.48z"  horiz-adv-x="1024" />

    
    <glyph glyph-name="account-hex" unicode="&#59221;" d="M865.537 649.816c31.094-17.927 56.847-61.239 56.801-96.336v-338.219c0-35.082-24.97-78.394-56.049-96.32L568.61-50.55600000000004c-31.047-17.927-81.817-17.927-112.865 0L158.05 118.94000000000005C126.986 136.837 102 180.17999999999995 102 215.26099999999997V553.495c0 35.098 24.986 78.394 56.049 96.321L455.007 818.5550000000001c31.048 17.927 81.833 17.927 112.866 0l297.664-168.739zM557.17 176.649c81.333 0 151.508 0 151.508 44.266v9.212c0 84.95-67.943 154.037-151.508 154.037h-90.012c-83.565 0-151.508-69.086-151.508-154.037v-9.212c0-44.266 66.951-44.266 151.508-44.266h90.012zM512.53 401.645c57.924 0 105.002 46.55 105.002 103.758S570.453 609.1600000000001 512.529 609.1600000000001c-57.925 0-105.002-46.55-105.002-103.757 0-57.209 47.077-103.758 105.002-103.758z"  horiz-adv-x="1024" />

    
    <glyph glyph-name="changeskin-hex" unicode="&#59222;" d="M865.537 649.816c31.094-17.927 56.847-61.239 56.801-96.336v-338.219c0-35.082-24.97-78.394-56.049-96.32L568.61-50.55600000000004c-31.047-17.927-81.817-17.927-112.865 0L158.05 118.94000000000005C126.986 136.837 102 180.17999999999995 102 215.26099999999997V553.495c0 35.098 24.986 78.394 56.049 96.321L455.007 818.5550000000001c31.048 17.927 81.833 17.927 112.866 0l297.664-168.739zM620.34 596.9549999999999c-12.895 7.528-29.481 3.361-37.103-9.375l-17.7-30.187H460.354l-17.672 30.187c-7.622 12.689-24.256 16.903-37.104 9.375l-124.781-73.057c-12.848-7.528-17.114-23.957-9.492-36.694l40.651-67.753c7.622-12.737 24.257-16.903 37.104-9.375l23.644 8.732v-194.38c0-26.467 12.74-47.962 39.586-47.962h201.242c26.797 0 39.654 21.448 39.654 47.962v194.38l23.576-8.732c12.895-7.528 29.482-3.362 37.104 9.375l40.65 67.753c7.719 12.737 3.452 29.166-9.395 36.694L620.34 596.9549999999999z"  horiz-adv-x="1024" />

    
    <glyph glyph-name="search-hex" unicode="&#59223;" d="M596.728 352.381c16.93 27.091 26.732 59.224 26.732 93.68 0 96.719-77.24 175.125-172.52 175.125-95.282 0-172.522-78.406-172.522-175.125s77.24-175.125 172.521-175.125c36.192 0 69.782 11.313 97.524 30.645l99.42-99.42c13.678-13.678 35.854-13.678 49.532 0 13.679 13.678 13.679 35.855 0 49.533L596.728 352.38z m269.34 297.435c31.115-17.927 56.886-61.239 56.84-96.336v-338.219c0-35.082-24.988-78.394-56.088-96.32L568.934-50.55600000000004c-31.07-17.927-81.875-17.927-112.944 0L158.088 118.94000000000005C127.003 136.837 102 180.17999999999995 102 215.26099999999997V553.495c0 35.098 25.003 78.394 56.088 96.321L455.253 818.5550000000001c31.07 17.927 81.89 17.927 112.943 0l297.871-168.739zM554.452 446.061c0-58.031-46.344-105.075-103.513-105.075-57.168 0-103.512 47.044-103.512 105.075 0 58.031 46.344 105.075 103.512 105.075 57.169 0 103.513-47.044 103.513-105.075z"  horiz-adv-x="1024" />

    
    <glyph glyph-name="fullscreen-hex" unicode="&#59224;" d="M361.49 278.745L320 320.235v-128h128l-41.255 41.255-0.255-0.255-45.255 45.255 0.255 0.255z m45.255 256L448 576H320v-128l41.49 41.49-0.255 0.255L406.49 535l0.255-0.255z m210.51-301.255L576 192.235h128v128l-41.49-41.49 0.255-0.255-45.255-45.255-0.255 0.255z m45.255 256L704 448V576H576l41.255-41.255 0.255 0.255 45.255-45.255-0.255-0.255zM568.249 818.5550000000001l297.904-168.739c31.12-17.927 56.893-61.239 56.847-96.336v-338.219c0-35.082-24.99-78.394-56.094-96.32l-297.92-169.496c-31.073-17.927-81.884-17.927-112.957 0L158.094 118.94000000000005C127.006 136.837 102 180.17999999999995 102 215.26099999999997V553.495c0 35.098 25.006 78.394 56.094 96.321L455.292 818.5550000000001c31.073 17.927 81.899 17.927 112.957 0z m94.26-329.065l-45.254 45.255L527 444.49l45.255-45.255 90.255 90.255z m-45.254-256l45.255 45.255L572.255 369 527 323.745l90.255-90.255z m-210.51 301.255L361.49 489.49l90.255-90.255L497 444.49l-90.255 90.255z m-45.255-256l45.255-45.255L497 323.745 451.745 369l-90.255-90.255z"  horiz-adv-x="1024" />

    
    <glyph glyph-name="maintain-hex" unicode="&#59225;" d="M865.537 649.816c31.094-17.927 56.847-61.239 56.801-96.336v-338.219c0-35.082-24.97-78.394-56.049-96.32L568.61-50.55600000000004c-31.047-17.927-81.817-17.927-112.865 0L158.05 118.94000000000005C126.986 136.837 102 180.17999999999995 102 215.26099999999997V553.495c0 35.098 24.986 78.394 56.049 96.321L455.007 818.5550000000001c31.048 17.927 81.833 17.927 112.866 0l297.664-168.739zM691.471 411.257c30.914 31.496 38.42 77.74 22.664 116.48l-67.93-68.247-57.031 58.117 67.795 68.118c-37.912 15.758-83.033 7.979-113.797-23.367-37.092-37.79-40.227-96.652-10.138-138.452l-25.322-20.82-105.799 108.23-5.893 27.511-62.864 39.191-30.779-31.405 38.211-62.631 27.556-5.463 104.6-106.855-152.017-128.938c-12.603-12.842-12.603-33.655 0-46.496l11.408-11.626a31.838 31.838 0 0 1 45.63 0L510.548 333.03999999999996l19.655-20.08-5.787-6.013c-6.3-6.42-6.3-16.827 0-23.242l99.958-102.877a15.92 15.92 0 0 1 22.814 0l45.634 46.495c6.299 6.421 6.299 16.822 0 23.242l-99.96 102.878a15.926 15.926 0 0 1-22.82 0l-6.853-7.108-20.614 21.09 23.43 26.717c39.973-22.977 91.424-17.572 125.466 17.115z"  horiz-adv-x="1024" />

    
    <glyph glyph-name="warning-hex" unicode="&#59226;" d="M866.067 649.816c31.116-17.927 56.887-61.239 56.841-96.336v-338.219c0-35.082-24.988-78.394-56.088-96.32L568.934-50.55600000000004c-31.07-17.927-81.875-17.927-112.944 0L158.088 118.94000000000005C127.003 136.837 102 180.17999999999995 102 215.26099999999997V553.495c0 35.098 25.003 78.394 56.088 96.321L455.253 818.5550000000001c31.07 17.927 81.89 17.927 112.943 0l297.871-168.739zM512 256c-17.673 0-32 14.327-32 32 0 17.673 14.327 32 32 32 17.673 0 32-14.327 32-32 0-17.673-14.327-32-32-32z m56.758 351.446a64 64 0 0 1-25.717 25.718c-31.065 16.862-69.917 5.35-86.78-25.716L282.062 286.53200000000004A64 64 0 0 1 274.31 256c0-35.346 28.654-64 64-64h348.376a64 64 0 0 1 30.53 7.75c31.065 16.862 42.58 55.714 25.72 86.78L568.757 607.4449999999999zM512 544c17.673 0 32-14.327 32-32v-128c0-17.673-14.327-32-32-32-17.673 0-32 14.327-32 32V512c0 17.673 14.327 32 32 32z"  horiz-adv-x="1024" />

    
    <glyph glyph-name="diagnosis-hex" unicode="&#59227;" d="M865.292 649.816L567.333 818.5550000000001c-31.063 17.927-81.898 17.927-112.977 0L157.104 649.816C126.01 631.889 101 588.5930000000001 101 553.496V215.26c0-35.082 25.01-78.424 56.104-96.32l297.99-169.496c31.078-17.927 81.898-17.927 112.977 0L866.045 118.94000000000005c31.109 17.927 56.104 61.239 56.104 96.321v338.22c0.046 35.096-25.732 78.408-56.857 96.335z m-563.57-438.855h420.424V452.49H301.723v-241.53z m122.624 146.643h61.312v60.382h52.553v-60.382h61.311v-51.757h-61.311v-60.382h-52.553v60.382h-61.312v51.757z m-4.38 232.903h-61.31v-85.542h61.31v85.542z m245.248 0h-61.312v-85.542h61.312v85.542z m91.967-380.48c0-18.547-15.474-33.57-34.524-33.57H301.212c-19.05 0-34.524 15.023-34.524 33.57V531.13c0 18.546 15.473 33.57 34.524 33.57h26.787v26.166c0 18.546 15.474 33.57 34.525 33.57h53.647c19.05 0 34.525-15.024 34.525-33.57V564.7h122.623v26.166c0 18.546 15.474 33.57 34.524 33.57h53.648c19.05 0 34.524-15.024 34.524-33.57V564.7h26.86c19.051 0 34.525-15.024 34.525-33.57v-321.105h-0.219z"  horiz-adv-x="1024" />

    
    <glyph glyph-name="showpassword" unicode="&#59228;" d="M512 48c-123.712 0-224 100.288-224 224s100.288 224 224 224 224-100.288 224-224-100.288-224-224-224z m428.642 354.619c10.293-33.815-8.775-69.57-42.59-79.863-33.814-10.293-69.57 8.775-79.863 42.589C777.533 498.91 653.813 592 512 592c-141.816 0-265.537-93.094-306.191-226.662-10.292-33.814-46.048-52.883-79.863-42.59-33.814 10.291-52.883 46.047-42.59 79.861C140.302 589.71 313.46 720 512 720c198.537 0 371.691-130.287 428.642-317.381z"  horiz-adv-x="1024" />

    
    <glyph glyph-name="right" unicode="&#59229;" d="M557.255 384.235l-226.01 226.01c-24.993 24.994-24.993 65.516 0 90.51 24.994 24.993 65.516 24.993 90.51 0l271.529-271.53c24.993-24.993 24.993-65.515 0-90.509a64.716 64.716 0 0 0-5.186-4.657L420.755 66.71600000000001c-24.994-24.993-65.516-24.993-90.51 0-24.993 24.994-24.993 65.516 0 90.51l227.01 227.01z"  horiz-adv-x="1024" />

    
    <glyph glyph-name="down" unicode="&#59230;" d="M512.265 338.245l226.01 226.01c24.993 24.993 65.515 24.993 90.509 0 24.993-24.994 24.993-65.516 0-90.51l-271.53-271.529c-24.993-24.993-65.515-24.993-90.509 0a64.716 64.716 0 0 0-4.657 5.186L194.745 474.745c-24.993 24.994-24.993 65.516 0 90.51 24.994 24.993 65.516 24.993 90.51 0l227.01-227.01z"  horiz-adv-x="1024" />

    
    <glyph glyph-name="left" unicode="&#59231;" d="M466.274 383.235l226.01-226.01c24.993-24.993 24.993-65.515 0-90.509-24.994-24.993-65.516-24.993-90.51 0l-271.529 271.53c-24.993 24.993-24.993 65.515 0 90.509a64.716 64.716 0 0 0 5.186 4.657l267.343 267.343c24.994 24.993 65.516 24.993 90.51 0 24.993-24.994 24.993-65.516 0-90.51l-227.01-227.01z"  horiz-adv-x="1024" />

    
    <glyph glyph-name="up" unicode="&#59232;" d="M512.265 429.226l226.01-226.01c24.993-24.993 65.515-24.993 90.509 0 24.993 24.994 24.993 65.516 0 90.51l-271.53 271.529c-24.993 24.993-65.515 24.993-90.509 0a64.716 64.716 0 0 1-4.657-5.186L194.745 292.726c-24.993-24.994-24.993-65.516 0-90.51 24.994-24.993 65.516-24.993 90.51 0l227.01 227.01z"  horiz-adv-x="1024" />

    
    <glyph glyph-name="setting" unicode="&#59233;" d="M894.549 441.683c-72.666-74.236-182.491-85.803-267.816-36.63l-50.014-57.178 44.002-45.134 14.63 15.21c13.458 13.741 35.253 13.741 48.71 0L897.433 97.77999999999997c13.446-13.74 13.446-36 0-49.741l-97.407-99.506c-13.446-13.74-35.24-13.74-48.7 0l-213.368 220.17c-13.446 13.729-13.446 36 0 49.743l12.354 12.867-41.955 42.974L224.92-43.386999999999944c-26.896-27.484-70.505-27.484-97.402 0l-24.35 24.883c-26.902 27.48-26.902 72.023 0 99.508l324.49 275.944-223.276 228.684-58.82 11.692L64 731.364l65.7 67.212L263.885 714.7l12.58-58.878 225.836-231.629 54.052 44.559c-64.228 89.458-57.537 215.43 21.64 296.308 65.667 67.083 161.983 83.732 242.909 50.008L676.189 669.2860000000001l121.737-124.378 145.002 146.057c33.63-82.909 17.61-181.876-48.379-249.282z"  horiz-adv-x="1024" />

    
    <glyph glyph-name="descending" unicode="&#59234;" d="M528.063 263.91200000000003l169.864 205.27c8.412 10.165 8.04 26.22-0.832 35.86-4.112 4.468-9.564 6.958-15.231 6.958H342.136C329.91 512 320 500.644 320 486.635c0-6.494 2.174-12.74 6.074-17.452l169.863-205.271c8.411-10.165 22.422-10.592 31.294-0.953 0.284 0.31 0.561 0.627 0.831 0.953z"  horiz-adv-x="1024" />

    
    <glyph glyph-name="ascending" unicode="&#59235;" d="M528.31 503.974l169.327-204.972c8.385-10.15 8.014-26.18-0.829-35.806-4.1-4.462-9.534-6.949-15.183-6.949H342.97c-12.187 0-22.066 11.34-22.066 25.328 0 6.485 2.167 12.722 6.054 17.427l169.327 204.972c8.385 10.15 22.351 10.576 31.195 0.952 0.284-0.31 0.56-0.626 0.829-0.952z"  horiz-adv-x="1024" />

    
    <glyph glyph-name="previous" unicode="&#59238;" d="M343.774 384.735l226.01 226.01c24.993 24.994 24.993 65.516 0 90.51-24.994 24.993-65.516 24.993-90.51 0l-271.529-271.53c-24.993-24.993-24.993-65.515 0-90.509a64.716 64.716 0 0 1 5.186-4.657l267.343-267.343c24.994-24.993 65.516-24.993 90.51 0 24.993 24.994 24.993 65.516 0 90.51l-227.01 227.01z m245 0l226.01 226.01c24.993 24.994 24.993 65.516 0 90.51-24.994 24.993-65.516 24.993-90.51 0l-271.529-271.53c-24.993-24.993-24.993-65.515 0-90.509a64.716 64.716 0 0 1 5.186-4.657l267.343-267.343c24.994-24.993 65.516-24.993 90.51 0 24.993 24.994 24.993 65.516 0 90.51l-227.01 227.01z"  horiz-adv-x="1024" />

    
    <glyph glyph-name="next" unicode="&#59239;" d="M679.755 384.735l-226.01 226.01c-24.993 24.994-24.993 65.516 0 90.51 24.994 24.993 65.516 24.993 90.51 0l271.529-271.53c24.993-24.993 24.993-65.515 0-90.509a64.716 64.716 0 0 0-5.186-4.657L543.255 67.21600000000001c-24.994-24.993-65.516-24.993-90.51 0-24.993 24.994-24.993 65.516 0 90.51l227.01 227.01z m-245 0l-226.01 226.01c-24.993 24.994-24.993 65.516 0 90.51 24.994 24.993 65.516 24.993 90.51 0l271.529-271.53c24.993-24.993 24.993-65.515 0-90.509a64.716 64.716 0 0 0-5.186-4.657L298.255 67.21600000000001c-24.994-24.993-65.516-24.993-90.51 0-24.993 24.994-24.993 65.516 0 90.51l227.01 227.01z"  horiz-adv-x="1024" />

    
    <glyph glyph-name="delete" unicode="&#59236;" d="M192 27.428999999999974V576h640v-548.571C832-23.086000000000013 784.267-64 725.333-64H298.667C239.733-64 192-23.086000000000013 192 27.428999999999974zM832 768c35.346 0 64-28.654 64-64 0-35.346-28.654-64-64-64H193c-35.346 0-64 28.654-64 64 0 35.346 28.654 64 64 64h127.75l54.785 64h273.929l54.785-64H832zM385 448c-35.346 0-64-28.654-64-64v-256c0-35.346 28.654-64 64-64 35.346 0 64 28.654 64 64V384c0 35.346-28.654 64-64 64z m255 0c-35.346 0-64-28.654-64-64v-256c0-35.346 28.654-64 64-64 35.346 0 64 28.654 64 64V384c0 35.346-28.654 64-64 64z"  horiz-adv-x="1024" />

    
    <glyph glyph-name="search" unicode="&#59237;" d="M761.008 225.50199999999995L945.529 40.98000000000002c24.994-24.994 24.994-65.516 0-90.51s-65.516-24.994-90.51 0L670.5 134.99199999999996C607.725 90.29100000000005 530.932 64 448 64 235.923 64 64 235.923 64 448S235.923 832 448 832s384-171.923 384-384c0-82.933-26.29-159.726-70.992-222.498zM448 192c141.385 0 256 114.615 256 256S589.385 704 448 704 192 589.385 192 448s114.615-256 256-256z"  horiz-adv-x="1024" />

    
    <glyph glyph-name="close" unicode="&#59240;" d="M421.49 384L195.216 610.274c-24.993 24.994-24.993 65.516 0 90.51 24.994 24.993 65.516 24.993 90.51 0L512 474.51l226.274 226.274c24.994 24.993 65.516 24.993 90.51 0 24.993-24.994 24.993-65.516 0-90.51L602.51 384l226.274-226.274c24.993-24.994 24.993-65.516 0-90.51-24.994-24.993-65.516-24.993-90.51 0L512 293.49 285.726 67.21600000000001c-24.994-24.993-65.516-24.993-90.51 0-24.993 24.994-24.993 65.516 0 90.51L421.49 384z"  horiz-adv-x="1024" />

    
    <glyph glyph-name="time" unicode="&#59241;" d="M576 410.51V640c0 35.346-28.654 64-64 64-35.346 0-64-28.654-64-64v-256c0-17.802 7.269-33.907 19-45.508l0.255-0.257 135.764-135.764c24.994-24.994 65.516-24.994 90.51 0s24.994 65.516 0 90.51L576 410.51zM511.997 831.333c247.057 0 447.336-200.28 447.336-447.336 0-247.057-200.279-447.33-447.336-447.33-247.057 0-447.33 200.273-447.33 447.33 0 247.06 200.273 447.336 447.33 447.336z"  horiz-adv-x="1024" />

    
    <glyph glyph-name="date" unicode="&#59243;" d="M847.345 704H896c30.868 0 63.127-33.132 63.127-64v-647.236c0-30.868-25.023-55.89-55.891-55.89H120.764c-30.868 0-55.89 25.022-55.89 55.89V640c0 30.868 32.258 64 63.126 64h48.655v71.236c0 30.868 25.023 55.89 55.89 55.89h111.782c30.868 0 55.891-25.022 55.891-55.89V704h223.564v71.236c0 30.868 25.023 55.89 55.89 55.89h111.782c30.868 0 55.891-25.022 55.891-55.89V704z m-167.672 26.225v-133.446c0-24.807 24.731-45.013 55.211-45.013h1.358c30.44 0 55.212 20.206 55.212 45.013V730.2239999999999c0 24.804-24.772 45.012-55.212 45.012h-1.358c-30.48 0-55.211-20.207-55.211-45.011z m-447.127 0v-133.446c0-24.807 24.732-45.013 55.212-45.013h1.358c30.44 0 55.211 20.206 55.211 45.013V730.2239999999999c0 24.804-24.772 45.012-55.211 45.012h-1.358c-30.48 0-55.212-20.207-55.212-45.011zM128.873-0.8730000000000473h768v448h-768v-448z m192 384v-64h-128v64h128z m-128-128h128v-64h-128v64z m0-128h128v-64h-128v64z m384 256v-64h-128v64h128z m-128-128h128v-64h-128v64z m0-128h128v-64h-128v64z m384 256v-64h-128v64h128z m-128-128h128v-64h-128v64z m0-128h128v-64h-128v64z"  horiz-adv-x="1024" />

    
    <glyph glyph-name="open" unicode="&#59245;" d="M512.48 341.15999999999997l214.88 214.88c23.963 23.963 62.813 23.963 86.775 0 23.962-23.961 23.962-62.811 0-86.774L555.869 211c-23.962-23.962-62.813-23.962-86.775 0l-0.374 0.378a62.62 62.62 0 0 0-0.589 0.581L209.865 470.225c-23.962 23.962-23.962 62.813 0 86.775 23.962 23.962 62.812 23.962 86.775 0l215.84-215.84z"  horiz-adv-x="1024" />

    
    <glyph glyph-name="collapse" unicode="&#59246;" d="M512.48 426.84l214.88-214.88c23.963-23.963 62.813-23.963 86.775 0 23.962 23.961 23.962 62.811 0 86.774L555.869 557c-23.962 23.962-62.813 23.962-86.775 0l-0.374-0.378a62.62 62.62 0 0 1-0.589-0.581L209.865 297.775c-23.962-23.962-23.962-62.813 0-86.775 23.962-23.962 62.812-23.962 86.775 0l215.84 215.84z"  horiz-adv-x="1024" />

    
    <glyph glyph-name="help" unicode="&#59248;" d="M512 768c-212.032 0-384-171.968-384-384s171.968-384 384-384 384 171.968 384 384-171.968 384-384 384z m0 64c247.378 0 448-200.622 448-448S759.378-64 512-64 64 136.62199999999996 64 384 264.622 832 512 832z m-0.5-691c26.819 0 48.5 21.744 48.5 48.5S538.243 238 511.5 238c-26.819 0-48.5-21.744-48.5-48.5s21.757-48.5 48.5-48.5z m132.9 301.713c9.76 17.039 14.68 35.11 14.601 54.214 0 34.508-13.273 64.713-39.977 90.7-26.704 25.99-62.544 38.983-107.675 38.983-42.866 0-77.535-12.822-103.926-38.466-26.392-25.644-41.774-61.012-42.633-93.626-0.858-32.615 69.493-25.816 72.07-9.724 2.732 17.038 14.289 44.575 27.719 57.053 13.43 12.478 30.139 18.76 50.128 18.76 20.691 0 37.245-6.024 49.425-17.985 12.181-12.048 18.35-26.419 18.35-43.2 0-12.047-3.514-23.148-10.385-33.216-4.45-6.368-18.193-19.792-41.071-40.36-22.878-20.48-38.182-38.982-45.834-55.418-7.652-16.436-11.478-37.347-11.478-62.82 0-2.495 0.156-9.379 0.312-20.652h71.367c-0.39 23.837 1.483 40.36 5.466 49.567 3.982 9.294 14.288 21.513 30.842 36.659 32.013 29.344 52.86 52.493 62.7 69.531z"  horiz-adv-x="1024" />

    
    <glyph glyph-name="file" unicode="&#59250;" d="M531.552 640L423.273 768h-268.8c-50.4 0-89.6-41.421-89.6-91.718v-558.128c0-65.255 50.144-118.154 112-118.154h672c61.856 0 112 52.899 112 118.154v412.29c0 65.256-50.144 109.556-112 109.556H531.552z"  horiz-adv-x="1024" />

    
    <glyph glyph-name="folder" unicode="&#59251;" d="M869.102 0h-764.1l98.007 456.188c0 30.524 25.077 37.968 55.991 37.968l708 3.504c30.908-0.03 56-27.893 56-58.41l-97.894-384.01c0-14.66-5.902-28.719-16.407-39.08-10.504-10.361-24.749-16.174-39.597-16.16zM231 549.062h680.105L911 603.9680000000001c0 30.539-25.07 54.906-56 54.906H455V713.78c0 30.539-25.07 54.22-56 54.22H119c-30.93 0-56-23.681-56-54.22v-640.574a2 2 0 0 1 3.953-0.432L160.95 497.66c0 14.675 5.908 28.748 16.422 39.12 7.011 6.915 24.887 11.008 53.628 12.282z"  horiz-adv-x="1024" />

    
    <glyph glyph-name="add" unicode="&#59252;" d="M448 448V768c0 35.346 28.654 64 64 64 35.346 0 64-28.654 64-64v-320h320c35.346 0 64-28.654 64-64 0-35.346-28.654-64-64-64H576v-320c0-35.346-28.654-64-64-64-35.346 0-64 28.654-64 64V320H128c-35.346 0-64 28.654-64 64 0 35.346 28.654 64 64 64h320z"  horiz-adv-x="1024" />

    
    <glyph glyph-name="more" unicode="&#59242;" d="M512 512c70.692 0 128-57.308 128-128 0-70.692-57.308-128-128-128-70.692 0-128 57.308-128 128 0 70.692 57.308 128 128 128z m320 0c70.692 0 128-57.308 128-128 0-70.692-57.308-128-128-128-70.692 0-128 57.308-128 128 0 70.692 57.308 128 128 128z m-640 0c70.692 0 128-57.308 128-128 0-70.692-57.308-128-128-128-70.692 0-128 57.308-128 128 0 70.692 57.308 128 128 128z"  horiz-adv-x="1024" />

    
    <glyph glyph-name="checkmark" unicode="&#59253;" d="M398.863 307.60799999999995l407.293 407.294 135.765-135.765L398.863 36.08000000000004 263.098 171.84400000000005 82.08 352.86300000000006l135.765 135.764 181.019-181.019z"  horiz-adv-x="1024" />

    
    <glyph glyph-name="collect" unicode="&#58933;" d="M951.908 520.982l-417.554-275.56c-11.698-7.72-30.839-7.719-42.536 0L74.302 520.983c-11.698 7.72-11.698 20.354-0.002 28.076L491.82 824.715c11.695 7.721 30.835 7.721 42.531 0L951.91 549.057c11.696-7.721 11.695-20.355-0.002-28.075zM534.35 144.10900000000004l264.196 174.413c11.697 7.722 30.835 7.722 42.53 0l110.835-73.175c11.695-7.721 11.694-20.356-0.003-28.076L534.353-58.313999999999965c-11.697-7.72-30.838-7.72-42.535 0.001L74.3 217.26999999999998c-11.698 7.72-11.698 20.355-0.002 28.078l110.704 73.096c11.696 7.723 30.837 7.726 42.536 0.008l264.276-174.349c11.698-7.718 30.84-7.714 42.536 0.007z"  horiz-adv-x="1024" />

    
    <glyph glyph-name="export" unicode="&#58934;" d="M680 384c-30.504-0.28-120.84-14.392-145.523-20.72-32.69-8.421-63.913-22.101-92.536-40.544-5.712-3.696-12.34-7.84-19.402-12.152-29.91-18.592-70.924-43.96-89.031-66.36-6.232-8.663-16.823-12.646-26.947-10.136-11.126 2.163-19.028 12.498-18.54 24.248l0.27 2.912c12.18 60.592 27.701 112.224 46.133 153.552 18.094 40.96 42.893 78.344 73.295 110.488 30.504 32.088 69.522 55.776 115.979 70.336C565.735 608.784 622.657 606.992 680 608V776l248.322-248.322c17.495-17.495 17.495-45.86 0-63.356L680 216V384z m280-128v-264c0-30.928-25.072-56-56-56H120c-30.928 0-56 25.072-56 56V776c0 30.928 25.072 56 56 56h224v-128H192v-640h640V192l128 64z"  horiz-adv-x="1024" />

    
    <glyph glyph-name="import" unicode="&#58935;" d="M674.316 192H361.823c-22.269 0-40.322 18.053-40.322 40.322V544.815L422.305 444.01c39.371 38.06 76.495 66.785 113.391 86.652 40.864 21.868 82.6 32.82 124.046 32.566 41.413-0.361 82.45-7.91 121.28-22.308 39.299-14.41 83.328-37.48 130.924-68.628 7.61-14.07 9.368-24.076 5.277-30.02a24.906 24.906 0 0 0-24.817-11.571c-26.745 2.365-70.883-8.878-103.159-16.992-7.568-1.966-82.273-24.736-109.817-41.335-20.74-12.517-87.753-61.554-105.918-79.57L674.316 192zM960 256v-264c0-30.928-25.072-56-56-56H120c-30.928 0-56 25.072-56 56V776c0 30.928 25.072 56 56 56h224v-128H192v-640h640V192l128 64z"  horiz-adv-x="1024" />

    
    <glyph glyph-name="insulate" unicode="&#58932;" d="M245.017 560.473C211.512 509.885 192 449.221 192 384c0-176.731 143.269-320 320-320 65.221 0 125.885 19.512 176.473 53.017L245.017 560.473z m90.51 90.51l443.456-443.456C812.488 258.115 832 318.779 832 384c0 176.731-143.269 320-320 320-65.221 0-125.885-19.512-176.473-53.017zM512-64C264.576-64 64 136.57600000000002 64 384S264.576 832 512 832s448-200.576 448-448-200.576-448-448-448z"  horiz-adv-x="1024" />

    
    <glyph glyph-name="equipment" unicode="&#58936;" d="M768 480.514l145.82 72.495c15.826 7.868 35.032 1.417 42.9-14.409a32 32 0 0 0 3.346-14.245v-283.493c0-17.673-14.327-32-32-32a32 32 0 0 0-14.246 3.346L768 284.703V192c0-35.346-28.654-64-64-64H128c-35.346 0-64 28.654-64 64V576c0 35.346 28.654 64 64 64h576c35.346 0 64-28.654 64-64v-95.486z"  horiz-adv-x="1024" />

    
    <glyph glyph-name="edit" unicode="&#58938;" d="M749.58 814.472c2.924 2.942 65.61 58.337 146.35-7.293 19.327-17.014 99.433-95.18 60.779-166.567-10.172-15.095-19.327-22.77-65.23-68.443-9.026 9.211-193.014 194.712-193.014 194.712s48.317 44.648 51.115 47.59z m63.32-320.086L376.773 52.636999999999944l-39.16-34.926s-14.498-15.992-55.821-32.111c-41.324-15.99-101.339-38.635-172.416-54.626-20.218-2.943-56.455-9.467-52.132 37.1 4.323 46.695 34.076 126.78 50.733 178.465 20.98 48.87 36.874 63.454 66.627 94.67 29.753 31.47 445.154 448.016 445.154 448.016L812.9 494.387z"  horiz-adv-x="1024" />

    
    <glyph glyph-name="play" unicode="&#58939;" d="M512 831C263.11 831 64 632.3340000000001 64 384s199.11-447 448-447 448 198.666 448 447S760.89 831 512 831z m168.199-483.76L452.76 166.26999999999998C421.025 149.303 384 171.92499999999995 384 205.85699999999997V562.143c0 33.932 37.025 56.553 68.76 39.588L680.2 426.415c31.735-16.965 31.735-62.209 0-79.175z"  horiz-adv-x="1024" />

    
    <glyph glyph-name="pass" unicode="&#58940;" d="M532.725 256L640 141.01599999999996 896 384l49.995-53.945c21.474-16.186 19.052-44.963 0.477-63.676-0.105-0.106-88.774-86.942-266.007-260.509-18.875-18.484-51.37-20.135-72.581-3.687a48.497 48.497 0 0 0-4.834 4.288L448 170.26 532.725 256zM256.787 576h448v-64h-448v64z m0-128h448v-64h-448v64zM768 605.0450000000001L640 704H193.525v-640H384l130.837-129H129.262C93.772-65 65-39.928 65-9V775c0 30.928 28.771 56 64.262 56H704l192-167.497V448H768V605.0450000000001z"  horiz-adv-x="1024" />

    
    <glyph glyph-name="deploy" unicode="&#58941;" d="M448 64v-64c0-35.346-28.654-64-64-64H128c-35.346 0-64 28.654-64 64V256c0 35.346 28.654 64 64 64h64V448h-64c-35.346 0-64 28.654-64 64V768c0 35.346 28.654 64 64 64h256c35.346 0 64-28.654 64-64v-64h128v64c0 35.346 28.654 64 64 64h256c35.346 0 64-28.654 64-64v-256c0-35.346-28.654-64-64-64h-64v-128h64c35.346 0 64-28.654 64-64v-256c0-35.346-28.654-64-64-64H640c-35.346 0-64 28.654-64 64v64H448z m0 128h128v64c0 35.346 28.654 64 64 64h64V448h-64c-35.346 0-64 28.654-64 64v64H448v-64c0-35.346-28.654-64-64-64h-64v-128h64c35.346 0 64-28.654 64-64v-64zM192 704v-128h128V704H192z m512 0v-128h128V704H704z m0-512v-128h128V192H704z m-512 0v-128h128V192H192z"  horiz-adv-x="1024" />

    
    <glyph glyph-name="reduction" unicode="&#58943;" d="M829.496 699.782l76.872 76.901A32 32 0 0 0 929 786.06c17.673 0 32-14.327 32-32v-274.725c0-17.673-14.327-32-32-32H654.378a32 32 0 0 0-22.623 9.369c-12.5 12.494-12.503 32.755-0.009 45.255L739.02 609.2719999999999C681.056 667.769 600.674 704 511.833 704c-176.666 0-319.88-143.269-319.88-320s143.214-320 319.88-320c145.904 0 268.992 97.72 307.433 231.306l0.113-0.027C825.493 324.25300000000004 851.207 346 882 346c35.346 0 64-28.654 64-64 0-6.52-0.975-12.813-2.788-18.74C890.526 74.48299999999995 717.345-64 511.832-64 264.503-64 64 136.57600000000002 64 384S264.501 832 511.833 832c124.174 0 236.544-50.557 317.663-132.218z"  horiz-adv-x="1024" />

    
    <glyph glyph-name="qrcode" unicode="&#58945;" d="M128 832h256c35.346 0 64-28.654 64-64v-256c0-35.346-28.654-64-64-64H128c-35.346 0-64 28.654-64 64V768c0 35.346 28.654 64 64 64z m64-64c-35.346 0-64-28.654-64-64v-128c0-35.346 28.654-64 64-64h128c35.346 0 64 28.654 64 64V704c0 35.346-28.654 64-64 64H192z m448 64h256c35.346 0 64-28.654 64-64v-256c0-35.346-28.654-64-64-64H640c-35.346 0-64 28.654-64 64V768c0 35.346 28.654 64 64 64z m64-64c-35.346 0-64-28.654-64-64v-128c0-35.346 28.654-64 64-64h128c35.346 0 64 28.654 64 64V704c0 35.346-28.654 64-64 64H704zM128 320h256c35.346 0 64-28.654 64-64v-256c0-35.346-28.654-64-64-64H128c-35.346 0-64 28.654-64 64V256c0 35.346 28.654 64 64 64z m64-64c-35.346 0-64-28.654-64-64v-128c0-35.346 28.654-64 64-64h128c35.346 0 64 28.654 64 64V192c0 35.346-28.654 64-64 64H192z m0 448h128v-128H192V704z m0-512h128v-128H192V192z m512 512h128v-128H704V704zM576 320h64v-128h-64V320z m256 0h128v-128H832V320z m-128 0h64v-192h-64V320zM576 128h64v-192h-64V128z m256-128h64v-64h-64v64z m-128 64h64v-128h-64V64z m192 64h64v-128h-64V128z"  horiz-adv-x="1024" />

    
    <glyph glyph-name="list" unicode="&#58946;" d="M512 832c35.346 0 64-28.654 64-64v-64c0-35.346-28.654-64-64-64-35.346 0-64 28.654-64 64v64c0 35.346 28.654 64 64 64z m0-320c35.346 0 64-28.654 64-64v-128c0-35.346-28.654-64-64-64-35.346 0-64 28.654-64 64V448c0 35.346 28.654 64 64 64z m0-384c35.346 0 64-28.654 64-64v-64c0-35.346-28.654-64-64-64-35.346 0-64 28.654-64 64v64c0 35.346 28.654 64 64 64zM256 769v-769c0-35.346-28.654-64-64-64-35.346 0-64 28.654-64 64V769c0 35.346 28.654 64 64 64 35.346 0 64-28.654 64-64z m640 0v-769c0-35.346-28.654-64-64-64-35.346 0-64 28.654-64 64V769c0 35.346 28.654 64 64 64 35.346 0 64-28.654 64-64z"  horiz-adv-x="1024" />

    
    <glyph glyph-name="refresh" unicode="&#58947;" d="M198.992 443.008C198.462 408.119 170.015 380 135 380c-35.346 0-64 28.654-64 64 0 4.308 0.426 8.516 1.237 12.585C87.861 586.1469999999999 194.554 742.729 363.376 800.177 572.536 871.36 741.712 802.06 883 636.7919999999999c25.312 22.735 55.272 56.8 84 82.625v-219.946c0-30.384-25.012-55.03-55.902-55.083L687 444s50.705 47.77 93.881 87.226C732.273 625.9169999999999 614.256 709.87 492.904 699 351.784 686.419 234.496 607.44 200 443l-1.008 0.008zM838.123 317c2.065 33.483 29.874 60 63.877 60s61.812-26.517 63.877-60H966c4.623-127.347-114.151-314.018-291.376-357.177C460.669-92.27999999999997 294.178-56.46900000000005 155 123.20799999999997c-25.312-22.735-55.272-56.8-84-82.625V260.529c0 30.384 25.012 55.03 55.902 55.083L351 316c-45.92-41.938-50.705-47.77-93.881-87.226 48.608-94.691 162-175.773 287.977-167.774 142.62 9.056 258.408 91.56 292.904 256h0.123z"  horiz-adv-x="1024" />

    
    <glyph glyph-name="relation" unicode="&#58950;" d="M898.216 766.6510000000001l-3.597 3.597c-82.832 82.336-216.602 82.336-299.435 0l-190.877-190.8c-82.343-82.864-82.343-216.664 0-299.527l3.515-3.515c6.866-6.785 14.224-12.998 21.662-18.802l69.812 69.895c-8.175 4.741-15.86 10.627-22.808 17.576l-3.515 3.433c-44.745 44.836-44.745 117.435 0 162.27l190.96 190.883c44.778 44.728 117.323 44.728 162.102 0l3.515-3.515c44.736-44.808 44.736-117.381 0-162.189l-86.242-86.49a295 295 0 0 0 21.335-115.837l133.573 133.495c82.379 82.817 82.379 216.627 0 299.444v0.082zM616.192 491.65a209.599 209.599 0 0 1-21.744 18.803l-69.811-69.814c8.174-4.904 15.94-10.627 22.889-17.657l3.597-3.515c44.736-44.808 44.736-117.381 0-162.19L360.246 66.39499999999998c-44.853-44.702-117.413-44.702-162.266 0l-3.515 3.597c-44.737 44.808-44.737 117.381 0 162.189l86.323 86.245a295.937 295.937 0 0 0-21.417 115.837L125.798 300.92999999999995c-82.397-82.872-82.397-216.735 0-299.608l3.515-3.596c82.88-82.301 216.638-82.301 299.517 0L619.708 188.69000000000005c82.298 82.882 82.298 216.644 0 299.526l-3.516 3.515v-0.082z"  horiz-adv-x="1024" />

    
    <glyph glyph-name="recovery" unicode="&#58951;" d="M909.926 331.201L662.278 752.2239999999999A32 32 0 0 1 634.696 768H427.838c-17.673 0-32-14.327-32-32a32 32 0 0 1 4.417-16.224l247.64-421.022a32 32 0 0 1 27.582-15.777h206.866c17.674 0 32 14.327 32 32a32 32 0 0 1-4.417 16.224zM408.124 226.55499999999995L304.659 48.047000000000025c-8.862-15.29-3.651-34.87 11.64-43.733A32 32 0 0 1 332.344 0h467.6a32 32 0 0 1 27.682 15.948l103.51 178.509c8.865 15.288 3.658 34.869-11.631 43.734a32 32 0 0 1-16.052 4.318H435.81a32 32 0 0 1-27.686-15.954zM307.44 660.2L75.267 258.54100000000005a32 32 0 0 1 0.016-32.056l103.71-179.007c8.86-15.292 28.439-20.506 43.731-11.647a32 32 0 0 1 11.555 11.49l235.52 401.212a32 32 0 0 1-0.115 32.595L362.626 660.58c-9.055 15.177-28.699 20.14-43.876 11.086a32 32 0 0 1-11.31-11.467z"  horiz-adv-x="1024" />

    
    <glyph glyph-name="hidden" unicode="&#59254;" d="M559.262 282.341v-112.126C559.26 142.38300000000004 537.866 120 512 120c-26.85 0-48.246 22.383-48.246 50.215V282.438c-47.111 4.53-92.962 15.627-136.336 32.584l-50.172-86.407c-8.73-14.986-24.488-23.63-40.37-23.63-8.785 0-17.392 2.27-24.614 6.892-23.146 14.506-30.402 45.205-16.739 68.923l45.622 77.726c-69.248 43.54-128.21 103.7-170.253 176.612-13.725 23.474-5.831 52.845 16.739 65.97 23.254 13.537 52.66 5.62 65.969-17.723 73.768-127.46 211.136-206.925 358.4-206.77 147.213-0.155 284.58 79.31 358.4 207.754 13.356 22.568 42.659 30.485 65.97 16.739 22.617-12.917 30.41-42.287 16.738-64.985-41.922-73.283-100.757-133.631-169.894-177.29l45.31-78.033c13.663-23.732 6.402-54.314-15.755-68.923-8.132-4.515-16.74-6.892-25.6-6.892-15.721 0-31.59 8.534-40.369 23.63l-50.181 86.424c-43.68-17.097-89.88-28.231-137.357-32.698z"  horiz-adv-x="1024" />

    
    <glyph glyph-name="structure" unicode="&#58942;" d="M863.644444 352.71111099999996c0-194.346667-157.582222-352-352-352s-352 157.653333-352 352 157.582222 352 352 352 352-157.582222 352-352z m-352 270.222222c-149.191111 0-270.222222-121.031111-270.222222-270.222222s121.031111-270.222222 270.222222-270.222222 270.222222 121.031111 270.222223 270.222222-121.031111 270.222222-270.222223 270.222222zM224 320c88.391111 0 160-71.608889 160-160s-71.608889-160-160-160-160 71.608889-160 160 71.608889 160 160 160zM800 320c88.391111 0 160-71.608889 160-160s-71.608889-160-160-160-160 71.608889-160 160 71.608889 160 160 160zM512 832c88.391111 0 160-71.608889 160-160S600.391111 512 512 512 352 583.608889 352 672 423.608889 832 512 832z"  horiz-adv-x="1024" />

    
    <glyph glyph-name="add-hex" unicode="&#58944;" d="M567.253333 817.422222l297.884445-168.746666c31.146667-17.92 56.888889-61.226667 56.817778-96.355556v-338.204444c0-35.057778-24.96-78.364444-56.106667-96.355556l-297.955556-169.528889c-31.075556-17.92-81.848889-17.92-112.924444 0l-297.955556 169.528889c-31.075556 17.92-56.106667 61.226667-56.106666 96.355556V552.391111c0 35.128889 25.031111 78.364444 56.106666 96.355556l297.173334 168.746666c31.217778 17.848889 82.062222 17.848889 113.066666-0.071111z m149.12-400.426666h-170.666666v170.666666c0 18.773333-15.36 34.133333-34.133334 34.133334s-34.133333-15.36-34.133333-34.133334v-170.666666h-170.666667c-18.773333 0-34.133333-15.36-34.133333-34.133334s15.36-34.133333 34.133333-34.133333h170.666667v-170.666667c0-18.773333 15.36-34.133333 34.133333-34.133333s34.133333 15.36 34.133334 34.133333v170.666667h170.666666c18.773333 0 34.133333 15.36 34.133334 34.133333s-15.36 34.133333-34.133334 34.133334z"  horiz-adv-x="1024" />

    
    <glyph glyph-name="resource" unicode="&#58948;" d="M219.024 657.005a27.966 27.966 0 0 0-20.056 8.428 27.894 27.894 0 0 0-7.966 19.869 27.893 27.893 0 0 0 8.456 19.664C283.622 786.8820000000001 394.743 832 512.35 832c111.791 0 218.86-41.308 301.487-116.31a27.91 27.91 0 0 0 1.868-39.494c-10.437-11.413-28.12-12.244-39.58-1.862-72.287 65.612-165.974 101.758-263.775 101.758-102.904 0-200.12-39.475-273.77-111.145A27.951 27.951 0 0 0 219.02 657l0.004 0.005zM93.099 327c-14.564 0-26.863 11.198-27.924 25.865A455.41 455.41 0 0 0 64 385.387c0 81.768 22.494 161.72 65.03 231.235 8.053 13.147 25.292 17.301 38.51 9.326a27.814 27.814 0 0 0 12.663-17.198 27.745 27.745 0 0 0-3.283-21.084c-37.205-60.782-56.868-130.735-56.868-202.279 0-9.457 0.344-19.056 1.033-28.537 1.104-15.348-10.507-28.678-25.952-29.775-0.68-0.047-1.364-0.07-2.034-0.07V327z m820.803-92a27.813 27.813 0 0 0-8.158 1.217c-14.77 4.502-23.098 20.107-18.598 34.867a390.615 390.615 0 0 1 16.927 114.09c0 77.425-22.618 152.254-65.383 216.4a27.934 27.934 0 0 0-4.144 20.99 27.88 27.88 0 0 0 11.916 17.751c12.85 8.541 30.206 5.083 38.773-7.762C934.143 559.196 960 473.66 960 385.178A446.578 446.578 0 0 0 940.64 254.79999999999995c-3.673-12.038-14.753-19.795-26.738-19.795V235z m-617.9 62a27.947 27.947 0 0 0-18.437 6.918c-9.366 8.176-12.202 21.57-6.955 32.85 1.688 8.018 4.008 34.128 4.008 49.65C275.138 516.366 381.388 622 511.488 622c22.963 0 45.658-3.277 67.461-9.738 14.83-4.391 23.29-19.952 18.885-34.756-4.4-14.791-19.97-23.244-34.827-18.852a180.882 180.882 0 0 1-51.515 7.428c-99.328 0-180.455-80.644-180.846-179.777 0-19.248-1.32-65.802-13.552-79.761a27.958 27.958 0 0 0-21.087-9.54l-0.005-0.004z m311.005-347a28.025 28.025 0 0 0-14.576 4.084 27.829 27.829 0 0 0-12.644 17.233 27.783 27.783 0 0 0 3.32 21.102c32.843 53.53 59.013 110.462 77.804 169.221 0.354 1.103 34.4 108.78 31.89 223.718-0.462 20.906-2.973 37.61-8.145 54.148a178.314 178.314 0 0 1-35.297 63.465 27.793 27.793 0 0 0 3.067 39.324c11.77 10.016 29.434 8.656 39.526-3.043 21.093-24.519 36.651-52.494 46.24-83.179 6.795-21.72 10.084-43.153 10.66-69.504 2.723-124.561-33.009-237.157-34.537-241.887-20.126-62.966-48.175-123.981-83.36-181.323A28.041 28.041 0 0 0 607.008-50z m-478.06 228a27.866 27.866 0 0 0-17.354 6.032 27.863 27.863 0 0 0-4.547 39.197c50.814 63.964 61.484 124.569 61.484 164.138 0.82 137.631 83.544 260.621 210.753 313.484 14.204 5.914 30.621-0.792 36.557-15.028 5.944-14.217-0.8-30.559-15.062-36.482-106.428-44.23-175.64-147.127-176.332-262.144 0-48.273-12.77-122.072-73.575-198.623A27.96 27.96 0 0 0 128.937 178h0.01z m632.877-153a27.671 27.671 0 0 0-13.453 3.494 27.834 27.834 0 0 0-13.283 16.693 28.008 28.008 0 0 0 2.389 21.246c40.369 73.126 60.835 180.679 60.835 319.656 0 15.417 12.469 27.911 27.844 27.911C841.53 414 854 401.506 854 386.089c0-148.539-22.8-265.182-67.791-346.685-4.92-8.903-14.258-14.419-24.385-14.404z m46.212 437a27.989 27.989 0 0 0-26.387 18.62c-40.354 113.998-148.962 190.602-270.276 190.602-5.632 0-11.246-0.17-16.812-0.481-15.47-0.843-28.633 10.889-29.514 26.263-0.89 15.384 10.912 28.554 26.335 29.435 152.678 8.712 292.594-84.77 343.031-227.249a27.893 27.893 0 0 0-1.157-21.337 27.87 27.87 0 0 0-15.914-14.251 27.82 27.82 0 0 0-9.31-1.602h0.004zM187.002 89a27.963 27.963 0 0 0-22.054 10.702 27.869 27.869 0 0 0 4.787 39.189c37.025 28.91 52.21 65.482 64.412 94.868 5.907 14.239 22.307 21.014 36.568 15.106 14.28-5.893 21.068-22.23 15.142-36.473-13.144-31.659-33.016-79.508-81.622-117.46A27.896 27.896 0 0 0 187.002 89z m286.031-153a28.008 28.008 0 0 0-17.455 6.08 27.836 27.836 0 0 0-4.471 39.237c22.304 27.89 54.5 73.4 81.229 131.758 25.066 54.746 41.375 110.312 49.836 169.892 2.181 15.272 16.365 25.97 31.705 23.739 15.335-2.156 26.01-16.287 23.844-31.554-9.236-64.957-27.008-125.556-54.34-185.235-29.085-63.533-64.12-113.038-88.388-143.385A28.043 28.043 0 0 0 473.028-64h0.005z m-116.076 27a27.882 27.882 0 0 0-18.993 7.429 27.851 27.851 0 0 0-8.943 19.402 27.857 27.857 0 0 0 7.427 20.033c51.049 55.033 116.572 146.645 138.799 270.504a503.054 503.054 0 0 1 7.564 104.82c-0.503 15.405 11.617 28.297 27.052 28.792 15.369 0.584 28.346-11.596 28.84-26.996a558.691 558.691 0 0 0-8.411-116.453c-19.469-108.558-72.31-211.813-152.812-298.584A27.9 27.9 0 0 0 356.957-37z m-97.949 51c-7.122 0-14.236 2.687-19.704 8.067a27.843 27.843 0 0 0-0.198 39.476c40.35 40.64 97.247 105.392 125.35 198.05 13.553 44.666 14.25 84.44 14.873 119.517l0.113 6.063C379.432 457.628 438.996 517 512.212 517 585.431 517 645 457.628 645 384.65c0-15.427-12.539-27.911-28-27.911s-28.005 12.484-28.005 27.91c0 42.197-34.444 76.524-76.784 76.524s-76.774-34.327-76.774-76.524l-0.113-6.515c-0.655-36.808-1.461-82.601-17.252-134.699-31.72-104.543-94.612-176.282-139.167-221.16A27.96 27.96 0 0 0 259.008 14z"  horiz-adv-x="1024" />

    
    <glyph glyph-name="scan" unicode="&#58954;" d="M912 335.28888900000004h-800c-26.524444 0-48 21.475556-48 48s21.475556 48 48 48h800c26.524444 0 48-21.475556 48-48s-21.475556-48-48-48zM176 81.42222200000003V221.15555600000005c0 18.844444-15.288889 34.133333-34.133333 34.133333H98.133333c-18.844444 0-34.133333-15.288889-34.133333-34.133333v-251.733334c0-18.844444 15.288889-34.133333 34.133333-34.133333h251.733334c18.844444 0 34.133333 15.288889 34.133333 34.133333v43.733334c0 18.844444-15.288889 34.133333-34.133333 34.133333H210.133333c-18.844444 0-34.133333 15.288889-34.133333 34.133333zM848 81.42222200000003V221.15555600000005c0 18.844444 15.288889 34.133333 34.133333 34.133333h43.733334c18.844444 0 34.133333-15.288889 34.133333-34.133333v-251.733334c0-18.844444-15.288889-34.133333-34.133333-34.133333H674.133333c-18.844444 0-34.133333 15.288889-34.133333 34.133333v43.733334c0 18.844444 15.288889 34.133333 34.133333 34.133333h139.733334c18.844444 0 34.133333 15.288889 34.133333 34.133333zM176 685.1555559999999V545.4222219999999c0-18.844444-15.288889-34.133333-34.133333-34.133333H98.133333c-18.844444 0-34.133333 15.288889-34.133333 34.133333V797.155556c0 18.844444 15.288889 34.133333 34.133333 34.133333h251.733334c18.844444 0 34.133333-15.288889 34.133333-34.133333v-43.733334c0-18.844444-15.288889-34.133333-34.133333-34.133333H210.133333c-18.844444 0-34.133333-15.288889-34.133333-34.133333zM848 685.1555559999999V545.4222219999999c0-18.844444 15.288889-34.133333 34.133333-34.133333h43.733334c18.844444 0 34.133333 15.288889 34.133333 34.133333V797.155556c0 18.844444-15.288889 34.133333-34.133333 34.133333H674.133333c-18.844444 0-34.133333-15.288889-34.133333-34.133333v-43.733334c0-18.844444 15.288889-34.133333 34.133333-34.133333h139.733334c18.844444 0 34.133333-15.288889 34.133333-34.133333z"  horiz-adv-x="1024" />

    
    <glyph glyph-name="server" unicode="&#58953;" d="M128 832h768c35.346 0 64-28.654 64-64v-128c0-35.346-28.654-64-64-64H128c-35.346 0-64 28.654-64 64V768c0 35.346 28.654 64 64 64z m0-320h768c35.346 0 64-28.654 64-64v-128c0-35.346-28.654-64-64-64H128c-35.346 0-64 28.654-64 64V448c0 35.346 28.654 64 64 64z m0-320h768c35.346 0 64-28.654 64-64v-128c0-35.346-28.654-64-64-64H128c-35.346 0-64 28.654-64 64V128c0 35.346 28.654 64 64 64z m0 576v-128h128V768H128z m0-320v-128h128V448H128z m0-320v-128h128V128H128z"  horiz-adv-x="1024" />

    
    <glyph glyph-name="situation" unicode="&#58956;" d="M124.2 434.2c29.1-0.7 53.1 19.6 60.5 47.6 4.3 16.1 5.9 20.5 5.9 20.6 34.8 133.1 140.8 212.1 320.9 212.1 188.8 0 341.8-152.8 341.8-341.3s-153-341.3-341.8-341.3c-154.1 0-265.2 99.1-314.7 237.4-0.2 0.6 0.1 1.3 0.6 1.6l74 48c0.1 0.1 0.1 0.1 0.2 0.1 4 3.2 9.5 0.6 13.2-3l129-148.1c4.1-4.1 10.4-4 14.3 0.2l0.1 0.1 220.2 183.2c3.9 4.2 10.3 4.3 14.3 0.4l45.2-44.4c6.6-6.5 17.3-1.4 17.3 8.1V500.8c0 6-4.6 11-10.3 11l-174.5 0.1c-8.9 0.1-13.7-11.2-7.6-18.3l39.5-46.4c3.7-4.3 3.6-11-0.4-15.1l-0.1-0.1-140.6-115.5c-3.8-4.1-10-4.1-14-0.4l-0.1 0.1-106.9 112.5-0.1 0.1c-4 3.7-10.1 5.8-15.9 2.8-0.1 0-0.1-0.1-0.1-0.1l-217.5-133c-0.5-0.3-12.6-7.4-12.5-8 6-31.6 21.5-53.5 33.7-82.3l0.1 0.1c72.7-153.7 212-260.8 385.2-271.6C753-80.10000000000002 977.2 144.89999999999998 959 414.4 943.2 647.5 748.9 831.8 511.3 831.8c-225 0.1-412.7-119.7-444.8-333.1-5.1-33.9 23.3-63.2 57.7-64.5z"  horiz-adv-x="1024" />

    
    <glyph glyph-name="lecture" unicode="&#58958;" d="M182.9 832.1h87c14.5 0 28.5-5.9 38.8-16.4l77.6-79.2c10.3-10.5 24.2-16.4 38.8-16.4h174c14.5 0 28.5 5.9 38.8 16.4l77.6 79.2c10.3 10.5 24.2 16.4 38.8 16.4h87c30.3 0 54.9-25.1 54.9-56V-8c0-30.9-24.6-56-54.9-56H182.9c-30.3 0-54.9 25.1-54.9 56V776.1c0 30.9 24.6 56 54.9 56zM416 832h191.3c17.5 0 32.3-13.7 32.7-31.2 0.5-18.1-14-32.8-32-32.8H416.7c-17.5 0-32.3 13.7-32.7 31.2-0.5 18 14 32.8 32 32.8z m352-284c0 28.7-23.3 52-52 52H308c-28.7 0-52-23.3-52-52s23.3-52 52-52h408c28.7 0 52 23.3 52 52z m0-224c0 28.7-23.3 52-52 52H308c-28.7 0-52-23.3-52-52s23.3-52 52-52h408c28.7 0 52 23.3 52 52z m0-224c0 28.7-23.3 52-52 52H308c-28.7 0-52-23.3-52-52s23.3-52 52-52h408c28.7 0 52 23.3 52 52z"  horiz-adv-x="1024" />

    
    <glyph glyph-name="export-selected" unicode="&#58988;" d="M820.2 546.2L785.1 511H409.4c-16.1 0-26.2-12.8-26.6-28.7v-62.5c-1.9-1.1-3.7-2.3-5.6-3.5-5.2-3.4-11.3-7.2-17.8-11.2-27.4-17-68-40.3-84.6-60.9-5.7-7.9-15.4-11.6-24.7-9.3-10.2 2-17.5 11.5-17 22.2l0.2 2.7c11.2 55.6 25.4 102.9 42.3 140.8 16.6 37.6 39.3 71.8 67.2 101.3 28 29.4 63.8 51.1 106.4 64.5 38.5 12.1 90.8 10.4 143.3 11.4V832l227.7-227.7c16.1-16.1 16.1-42.1 0-58.1zM415.3-64H120c-30.9 0-56 25.1-56 56V776c0 30.9 25.1 56 56 56h224v-128H192v-640h191v-95.7c0-17.8 14.5-32.3 32.3-32.3zM927.4 447.8H480.1c-17.5 0-31.8-13.9-32.3-31.3v-448.3c0-17.9 14.5-32.3 32.3-32.3h447.4c17.9 0 32.3 14.5 32.3 32.3V415.5c0 17.9-14.5 32.3-32.4 32.3z m-274-286.2l181.4 181.7 60.5-60.6-241.9-242.3-60.5 60.6-80.6 80.8 60.5 60.6 80.6-80.8z"  horiz-adv-x="1024" />

    
    <glyph glyph-name="other-equipment" unicode="&#58989;" d="M960 318.5L893.8 804.4C891.6 820.2 878.1 832 862.2 832H163.8c-15.9 0-29.4-11.7-31.7-27.4L64 318.5h0.7l-0.7-0.8v-345.2c0-20.2 16.4-36.6 36.6-36.6h822.8c20.2 0 36.6 16.4 36.6 36.6V317.70000000000005l-0.7 0.8h0.7z m-64-318.6H128V318.5h768v-318.6zM213.6 192h84.8c11.9 0 21.6 9.8 21.6 21.8v20.4c0 12-9.7 21.8-21.6 21.8h-84.8c-11.9 0-21.6-9.8-21.6-21.8v-20.4c0-12.1 9.7-21.8 21.6-21.8zM213.6 64h84.8c11.9 0 21.6 9.8 21.6 21.8v20.4c0 12-9.7 21.8-21.6 21.8h-84.8c-11.9 0-21.6-9.8-21.6-21.8v-20.4c0-12.1 9.7-21.8 21.6-21.8zM415.7 192h0.7c17.5 0 31.7 14.3 31.7 32s-14.2 32-31.7 32h-0.7c-17.5 0-31.7-14.3-31.7-32v-0.1c0-17.6 14.2-31.9 31.7-31.9zM415.7 64.29999999999995h0.7c17.5 0 31.7 14.3 31.7 32v0.1c0 17.7-14.2 32-31.7 32h-0.7c-17.5 0-31.7-14.3-31.7-32v-0.1c0-17.8 14.2-32 31.7-32zM543.7 192h0.7c17.5 0 31.7 14.3 31.7 32s-14.2 32-31.7 32h-0.7c-17.5 0-31.7-14.3-31.7-32v-0.1c0-17.6 14.2-31.9 31.7-31.9zM543.2 64h0.7c17.5 0 31.7 14.3 31.7 32s-14.2 32-31.7 32h-0.7c-17.5 0-31.7-14.3-31.7-32v-0.1c0-17.7 14.2-31.9 31.7-31.9zM671.7 192h0.7c17.5 0 31.7 14.3 31.7 32s-14.2 32-31.7 32h-0.7c-17.5 0-31.7-14.3-31.7-32v-0.1c0-17.6 14.2-31.9 31.7-31.9zM671.7 64h0.7c17.5 0 31.7 14.3 31.7 32s-14.2 32-31.7 32h-0.7c-17.5 0-31.7-14.3-31.7-32v-0.1c0-17.7 14.2-31.9 31.7-31.9zM799.7 192h0.7c17.5 0 31.7 14.3 31.7 32s-14.2 32-31.7 32h-0.7c-17.5 0-31.7-14.3-31.7-32v-0.1c0-17.6 14.2-31.9 31.7-31.9zM799.7 64h0.7c17.5 0 31.7 14.3 31.7 32s-14.2 32-31.7 32h-0.7c-17.5 0-31.7-14.3-31.7-32v-0.1c0-17.7 14.2-31.9 31.7-31.9z"  horiz-adv-x="1024" />

    
    <glyph glyph-name="network-equipment" unicode="&#58994;" d="M958.8 318.5L892.6 804.4C890.4 820.2 876.9 832 861 832H162.6c-15.9 0-29.4-11.7-31.7-27.4L62.8 318.5h0.7l-0.7-0.8v-345.2c0-20.2 16.4-36.6 36.6-36.6h822.8c20.2 0 36.6 16.4 36.6 36.6V317.70000000000005l-0.7 0.8h0.7zM468.1 757.8l-3.7-59.5h280l0.9-60.4H460.7l-3.7-62.3-180.8 93.2 191.9 89zM276.2 536.9h283.7l2.3 68.7 190.5-95.9-197.9-101 2.3 62.7H268.8l7.4 65.5z m619.8-537H128V318.5h768v-318.6zM213.6 192h84.8c11.9 0 21.6 9.8 21.6 21.8v20.4c0 12-9.7 21.8-21.6 21.8h-84.8c-11.9 0-21.6-9.8-21.6-21.8v-20.4c0-12.1 9.7-21.8 21.6-21.8zM213.6 64h84.8c11.9 0 21.6 9.8 21.6 21.8v20.4c0 12-9.7 21.8-21.6 21.8h-84.8c-11.9 0-21.6-9.8-21.6-21.8v-20.4c0-12.1 9.7-21.8 21.6-21.8zM415.7 192h0.7c17.5 0 31.7 14.3 31.7 32s-14.2 32-31.7 32h-0.7c-17.5 0-31.7-14.3-31.7-32v-0.1c0-17.6 14.2-31.9 31.7-31.9zM415.7 64.29999999999995h0.7c17.5 0 31.7 14.3 31.7 32v0.1c0 17.7-14.2 32-31.7 32h-0.7c-17.5 0-31.7-14.3-31.7-32v-0.1c0-17.8 14.2-32 31.7-32zM543.7 192h0.7c17.5 0 31.7 14.3 31.7 32s-14.2 32-31.7 32h-0.7c-17.5 0-31.7-14.3-31.7-32v-0.1c0-17.6 14.2-31.9 31.7-31.9zM543.2 64h0.7c17.5 0 31.7 14.3 31.7 32s-14.2 32-31.7 32h-0.7c-17.5 0-31.7-14.3-31.7-32v-0.1c0-17.7 14.2-31.9 31.7-31.9zM671.7 192h0.7c17.5 0 31.7 14.3 31.7 32s-14.2 32-31.7 32h-0.7c-17.5 0-31.7-14.3-31.7-32v-0.1c0-17.6 14.2-31.9 31.7-31.9zM671.7 64h0.7c17.5 0 31.7 14.3 31.7 32s-14.2 32-31.7 32h-0.7c-17.5 0-31.7-14.3-31.7-32v-0.1c0-17.7 14.2-31.9 31.7-31.9zM799.7 192h0.7c17.5 0 31.7 14.3 31.7 32s-14.2 32-31.7 32h-0.7c-17.5 0-31.7-14.3-31.7-32v-0.1c0-17.6 14.2-31.9 31.7-31.9zM799.7 64h0.7c17.5 0 31.7 14.3 31.7 32s-14.2 32-31.7 32h-0.7c-17.5 0-31.7-14.3-31.7-32v-0.1c0-17.7 14.2-31.9 31.7-31.9z"  horiz-adv-x="1024" />

    
    <glyph glyph-name="storage" unicode="&#58995;" d="M512 448c79 0 152.8 7.2 221.5 21.5C802.2 483.8 856.3 505 896 533v-85c0-23-17.2-44.4-51.5-64-34.3-19.7-80.9-35.3-140-46.8-59-11.4-123.2-17.2-192.5-17.2s-133.5 5.8-192.5 17.3-105.7 27.1-140 46.8-51.5 41-51.5 64v85c39.6-28 93.8-49.2 162.5-63.5C359.2 455.2 433 448 512 448z m0-384c79 0 152.8 7.2 221.5 21.5S856.3 121 896 149v-85c0-23-17.2-44.4-51.5-64-34.3-19.7-80.9-35.3-140-46.8-59-11.4-123.2-17.2-192.5-17.2s-133.4 5.8-192.5 17.2c-59.1 11.5-105.7 27.1-140 46.8S128 41 128 64v85c39.6-28 93.8-49.2 162.5-63.5C359.2 71.20000000000005 433 64 512 64z m0 191.9c79 0 152.8 7.2 221.5 21.5C802.2 291.79999999999995 856.3 313 896 341v-85c0-23-17.2-44.3-51.5-64-34.3-19.7-80.9-35.2-140-46.8-59-11.5-123.2-17.2-192.5-17.2s-133.5 5.8-192.5 17.3c-59.1 11.5-105.7 27.1-140 46.8s-51.5 41-51.5 64v85c39.6-28 93.8-49.2 162.5-63.5 68.7-14.5 142.5-21.7 221.5-21.7zM512 832c69.3 0 133.5-5.8 192.5-17.3 59.1-11.5 105.7-27.1 140-46.8 34.3-19.7 51.5-41 51.5-64v-64c0-23-17.2-44.3-51.5-64-34.3-19.7-80.9-35.2-140-46.8C645.4 517.7 581.3 512 512 512s-133.5 5.8-192.5 17.3c-59.1 11.5-105.7 27.1-140 46.8s-51.5 41-51.5 64v64c0 23 17.2 44.4 51.5 64 34.3 19.7 80.9 35.3 140 46.8C378.6 826.2 442.7 832 512 832z"  horiz-adv-x="1024" />

    
    <glyph glyph-name="nvr" unicode="&#58999;" d="M753.7 602.8s18.3 44.5-55.4 37.3l-3.4-57s49.3-9.7 58.8 19.7zM958.3 318.5L892.1 804.4C889.9 820.2 876.4 832 860.5 832H162.1c-15.9 0-29.4-11.7-31.7-27.4L62.3 318.5h0.7l-0.7-0.8v-345.2c0-20.2 16.4-36.6 36.6-36.6h822.8c20.2 0 36.6 16.4 36.6 36.6V317.70000000000005l-0.7 0.8h0.7zM663.5 672.2l78.5-0.2c55.8-0.2 64.9-41.4 64.9-41.4 12.5-63-56.2-69.5-48.2-69.5s17.5-6.8 17.5-6.8l69.1-82.6h-60.4l-43.7 58.7c-15.2 25.8-42.9 17.8-42.9 17.8l-5.7-76.5h-53.9l24.8 200.5z m-195.2 0l44.5-158.5 49.4 158.5h46.7l-67.6-200.5h-61.1l-57.9 200.5h46z m-265.5 0h45.8l100.8-144.1-6.2 144.1h39.6l20.4-200.5h-55.4l-109.3 146-11.8-146h-51.3l27.4 200.5z m691.5-672.3h-768V318.5h768v-318.6zM211.9 192h84.8c11.9 0 21.6 9.8 21.6 21.8v20.4c0 12-9.7 21.8-21.6 21.8h-84.8c-11.9 0-21.6-9.8-21.6-21.8v-20.4c0-12.1 9.7-21.8 21.6-21.8zM211.9 64h84.8c11.9 0 21.6 9.8 21.6 21.8v20.4c0 12-9.7 21.8-21.6 21.8h-84.8c-11.9 0-21.6-9.8-21.6-21.8v-20.4c0-12.1 9.7-21.8 21.6-21.8zM414 192h0.7c17.5 0 31.7 14.3 31.7 32s-14.2 32-31.7 32h-0.7c-17.5 0-31.7-14.3-31.7-32v-0.1c0-17.6 14.2-31.9 31.7-31.9zM414 64.29999999999995h0.7c17.5 0 31.7 14.3 31.7 32v0.1c0 17.7-14.2 32-31.7 32h-0.7c-17.5 0-31.7-14.3-31.7-32v-0.1c0-17.8 14.2-32 31.7-32zM542 192h0.7c17.5 0 31.7 14.3 31.7 32s-14.2 32-31.7 32h-0.7c-17.5 0-31.7-14.3-31.7-32v-0.1c0-17.6 14.2-31.9 31.7-31.9zM541.5 64h0.7c17.5 0 31.7 14.3 31.7 32s-14.2 32-31.7 32h-0.7c-17.5 0-31.7-14.3-31.7-32v-0.1c0-17.7 14.2-31.9 31.7-31.9zM670 192h0.7c17.5 0 31.7 14.3 31.7 32s-14.2 32-31.7 32h-0.7c-17.5 0-31.7-14.3-31.7-32v-0.1c0-17.6 14.2-31.9 31.7-31.9zM670 64h0.7c17.5 0 31.7 14.3 31.7 32s-14.2 32-31.7 32h-0.7c-17.5 0-31.7-14.3-31.7-32v-0.1c0-17.7 14.2-31.9 31.7-31.9zM798 192h0.7c17.5 0 31.7 14.3 31.7 32s-14.2 32-31.7 32h-0.7c-17.5 0-31.7-14.3-31.7-32v-0.1c0-17.6 14.2-31.9 31.7-31.9zM798 64h0.7c17.5 0 31.7 14.3 31.7 32s-14.2 32-31.7 32h-0.7c-17.5 0-31.7-14.3-31.7-32v-0.1c0-17.7 14.2-31.9 31.7-31.9z"  horiz-adv-x="1024" />

    
    <glyph glyph-name="safety-equipment" unicode="&#59003;" d="M958.6 318.5L892.4 804.4C890.2 820.2 876.7 832 860.8 832H162.4c-15.9 0-29.4-11.7-31.7-27.4L62.6 318.5h0.7l-0.7-0.8v-345.2c0-20.2 16.4-36.6 36.6-36.6H922c20.2 0 36.6 16.4 36.6 36.6V317.70000000000005l-0.7 0.8h0.7zM326.4 568.3L340 737.8s108.9 0.1 166.1 44.2c58.9-44 167.8-43.9 167.8-43.9L694 569.8c15.7-131.7-124-178-180.2-191.7-56.6 12.9-198 57.5-187.4 190.2z m568.2-568.4h-768V318.5h768v-318.6zM513.5 398c47.6 13.6 170.4 60.6 158.4 172.8L656.3 716s-90.2 2.9-149.7 39.5c-58-36.8-148.1-39.9-148.1-39.9l-10-146.1c-7.7-112.9 116.9-158.6 165-171.5zM371.3 702.3s82.5 6.4 135.7 39.9l3.2-165.5 146.4 0.6 0.7-6.6c10.1-102.1-100.8-147.2-143.9-159.5l-3.2 165.5-146.4-0.6 7.5 126.2zM541.8 64h0.7c17.5 0 31.7 14.3 31.7 32s-14.2 32-31.7 32h-0.7c-17.5 0-31.7-14.3-31.7-32v-0.1c0-17.7 14.2-31.9 31.7-31.9zM670.3 64h0.7c17.5 0 31.7 14.3 31.7 32s-14.2 32-31.7 32h-0.7c-17.5 0-31.7-14.3-31.7-32v-0.1c0-17.7 14.2-31.9 31.7-31.9zM542.3 192h0.7c17.5 0 31.7 14.3 31.7 32s-14.2 32-31.7 32h-0.7c-17.5 0-31.7-14.3-31.7-32v-0.1c0-17.6 14.2-31.9 31.7-31.9zM798.3 64h0.7c17.5 0 31.7 14.3 31.7 32s-14.2 32-31.7 32h-0.7c-17.5 0-31.7-14.3-31.7-32v-0.1c0-17.7 14.2-31.9 31.7-31.9zM670.3 192h0.7c17.5 0 31.7 14.3 31.7 32s-14.2 32-31.7 32h-0.7c-17.5 0-31.7-14.3-31.7-32v-0.1c0-17.6 14.2-31.9 31.7-31.9zM212.2 64H297c11.9 0 21.6 9.8 21.6 21.8v20.4c0 12-9.7 21.8-21.6 21.8h-84.8c-11.9 0-21.6-9.8-21.6-21.8v-20.4c0-12.1 9.7-21.8 21.6-21.8zM798.3 192h0.7c17.5 0 31.7 14.3 31.7 32s-14.2 32-31.7 32h-0.7c-17.5 0-31.7-14.3-31.7-32v-0.1c0-17.6 14.2-31.9 31.7-31.9zM414.3 192h0.7c17.5 0 31.7 14.3 31.7 32s-14.2 32-31.7 32h-0.7c-17.5 0-31.7-14.3-31.7-32v-0.1c0-17.6 14.2-31.9 31.7-31.9zM212.2 192H297c11.9 0 21.6 9.8 21.6 21.8v20.4c0 12-9.7 21.8-21.6 21.8h-84.8c-11.9 0-21.6-9.8-21.6-21.8v-20.4c0-12.1 9.7-21.8 21.6-21.8zM414.3 64.29999999999995h0.7c17.5 0 31.7 14.3 31.7 32v0.1c0 17.7-14.2 32-31.7 32h-0.7c-17.5 0-31.7-14.3-31.7-32v-0.1c0-17.8 14.2-32 31.7-32z"  horiz-adv-x="1024" />

    
    <glyph glyph-name="port" unicode="&#59012;" d="M531.8 826.8l166-100c12-7.2 19.4-20.2 19.4-34.3v-203.1c0-14-7.3-27-19.4-34.3l-166-100c-12.7-7.7-28.6-7.7-41.3 0l-166 100c-12 7.2-19.4 20.2-19.4 34.3V692.5c0 14 7.3 27 19.4 34.3l166 100c12.7 7.6 28.6 7.6 41.3 0zM384 667.1v-154.3l128-77.2 128 77.2V667.1l-128 77.2-128-77.2zM290.6 413.4l166-100c12-7.2 19.4-20.2 19.4-34.3V76c0-14-7.3-27-19.4-34.3l-166-100c-12.7-7.7-28.6-7.7-41.3 0l-166 100C71.3 49 64 62 64 76V279.1c0 14 7.3 27 19.4 34.3l166 100c12.6 7.7 28.5 7.7 41.2 0zM142.8 253.79999999999995v-154.3l128-77.2 128 77.2V253.79999999999995l-128 77.2-128-77.2zM774.7 413.4l166-100c12-7.2 19.4-20.2 19.4-34.3V76c0-14-7.3-27-19.4-34.3l-166-100c-12.7-7.7-28.6-7.7-41.3 0l-166 100c-12 7.2-19.4 20.2-19.4 34.3V279.1c0 14 7.3 27 19.4 34.3l166 100c12.7 7.7 28.6 7.7 41.3 0zM626.8 253.79999999999995v-154.3l128-77.2 128 77.2V253.79999999999995l-128 77.2-128-77.2z"  horiz-adv-x="1024" />

    
    <glyph glyph-name="police" unicode="&#59013;" d="M511.4 677.4l-77-159-174.3-26.9L387 366.1l-29.4-177L513.7 272l156.2-82.9-29.4 177 126.8 125.4L593 518.4l-81.6 159z m382.5-76.1c0-4.5 52.1-499.5-366.7-663l-4.5-2.2h-22.6l-4.5 2.2c-418.7 163.5-366.7 658.6-364.4 663l2.3 20.2h20.4c9.1 0 79.2 6.7 88.3 94.1l2.3 15.7 13.6 6.7c194.6 73.9 233.1 87.4 242.2 91.8l4.5 2.2h6.8c6.8 0 6.8 0 255.8-91.8l13.6-6.7 2.3-15.7c11.3-91.8 86-96.3 88.3-96.3H892l1.9-20.2z"  horiz-adv-x="1024" />

    
    <glyph glyph-name="geography" unicode="&#59014;" d="M497.2 832c40.6 0 78.1-7.3 84.8-8.5 185-32.5 301.3-140 360.1-316.4 10.4-31.2 17.1-83.8 17.1-104.3 0-48.6-2.5-70-3.6-78.3-29.9-226.2-218.2-390.7-445.9-389.2C290-63.39999999999998 110.8 90.70000000000005 70.4 313.20000000000005c-36.2 198.7 85.2 410.1 280 484.4 39.1 14.9 78.1 29.6 146.8 34.4z m239.3-441.8c-38.9-26.7-46.5-58.6-67.1-86.2-14.6-19.5-34.6-37.5-53.8-52.9-17.8-14.3-35.6-11.2-37.7 13.4-2.3 27.1 1.9 54.8 3.1 82.2 1.1 26.7 18.2 63.3-27 69-19 2.4-44.1 21.2-45.6 34.5-2.2 18.9 12.6 41.6 24.3 60 19.9 31.3 43 60.5 60.1 84.2 13.7 2.2 34.4-0.4 40 7.6 23.6 33.8 39.5 37.4 76.7 23.1 28.5-11.1 60.8-12.6 91.4-18.3-51 80.5-121.1 121.5-204.2 142.7-62.9 16.1-118.7 15.5-150.9-53.8-1.9-4.1-8.7-5.9-8.2-5.6-16.1 14.9-28.2 35.2-43 37.5-14.7 2.2-32.1-13.8-39.1-17.3 8.6-22.8 26.8-22.5 31-34.9 0.1-0.4-18-15.1-20.8-16.7-12 18.6-5.7 8.9-17 26.4-13.5-19.9-22.8-37.7-36-51.9-26.3-28.2-25.7-31.4 15.8-43.3 31 68 35.8 70.1 69.2 35-5.5-12.2-13.2-29.5-21.4-47.7-6.4-14.1-17-23.7-23.3-36.8-7-14.5-9.5-32.2-14.5-40.4-11.3-18.6 5.3-23.7 3-34.3-45.7-7-70.3-19.9-52.5-55.1 9.8-2.3 18.3 15.1 28.9 11.7 11.8-3.8 25.7-28.5 34.3-30.5-70.9-19.8-93.6 15.1-133.5 27.5-59.7 18.4-24 67-55 95.3-73-176.2 9.1-384.4 182.8-470.8 154.8-77.1 371.8-30 448.7 97.5-30.4 63.8-63.2 3.1-111.3 6.6-6.1 64.8 12.2 71.9 29 87.7 24.7 23.2 61.5 40.7 83.9 53.4 22.9-27.5 45.7-24.7 72.2-31.2 11.8 49.1 36.9 118.2 8.4 149-28.8-7.9-41.2-38.8-51.7-47.5-5.3 24.7-17.2 72.4-39.6 83.9-11.7 6-40.1-29.6-61.6-43.2 2.6-1.7 12.9-10.2 12-9.8z m-38.1 101.5c-32.8 53.8-85.4 96.9-112 45.2 14.4-11.4 27.9-26.4 44.8-34.3 18.4-8.6 66.4-22.4 67.2-10.9z m-369.9 221c-25.1-19.2-50.2-38.4-81.5-62.3 44.6-3.3 65 11.6 81.5 62.3zM301.8 339.1s4.6 67.9 80.8 26.7c76.3-41.2 57.2-48.8 86.2-54.9 29-6.1 5.3-69.4-6.1-80.9-11.4-11.4-27.5-29.7-29.7-38.9s-29-37.4-36.6-43.5c-7.6-6.1-2.3-57.9 3.8-63.3 6.1-5.4-48.1 4.6-51.1 106 0 0 9.9 43.5-23.6 68.6-33.6 25.3-23.7 80.2-23.7 80.2z"  horiz-adv-x="1024" />

    
    <glyph glyph-name="synchronous" unicode="&#59256;" d="M643.262-12.850000000000023c-21.057 28.815-18.426 72.275 5.988 97.273l97.413 107.64H127.968C92.64 192.06399999999996 64 220.70399999999995 64 256.033 64 291.36 92.64 320 127.968 320h768.064C931.36 320 960 291.36 960 256.03200000000004c0-37.668-10.952-45.22-29.608-63.968L725.717-19.371999999999957c-11.055-11.955-64.128-18.56-82.455 6.521z m-262.524 791.7c21.057-28.815 18.426-72.275-5.988-97.273l-97.413-107.64h618.695c35.328 0 63.968-28.64 63.968-63.969C960 474.64 931.36 446 896.032 446H127.968C92.64 446 64 474.64 64 509.968c0 37.668 10.952 45.22 29.608 63.968l204.675 211.436c11.055 11.955 64.128 18.56 82.455-6.521z"  horiz-adv-x="1024" />

    
    <glyph glyph-name="download" unicode="&#59016;" d="M960 320v-320c0-35.3-28.7-64-64-64l-768 0.3c-35.3 0-64 28.7-64 64V320c0 35.3 28.7 64 64 64s64-28.7 64-64v-256h640V320c0 35.3 28.7 64 64 64s64-28.7 64-64zM475 173.89999999999998L270.1 383.1c-19.9 20.2-19.5 52.8 0.7 72.6 20.3 19.9 52.8 19.5 72.6-0.7L448 335.79999999999995V774.5c0.1 31.9 31.4 57.6 63.3 57.6h0.2c31.9-0.1 64.5-25.9 64.5-57.8v-438.5l103.9 119.3c19.9 20.2 52.4 20.6 72.6 0.7 20.2-19.9 20.6-52.4 0.7-72.6L548.4 173.89999999999998c-9.7-9.8-22.9-15.5-36.7-15.5s-27 5.6-36.7 15.5z"  horiz-adv-x="1024" />

    
    <glyph glyph-name="view" unicode="&#59022;" d="M144 832h304v-384H64V752c0 44.2 35.8 80 80 80zM64 320h384v-384H144c-44.2 0-80 35.8-80 80V320zM576 832h304c44.2 0 80-35.8 80-80v-304H576V832zM576 320h384v-304c0-44.2-35.8-80-80-80H576V320z"  horiz-adv-x="1024" />

    
    <glyph glyph-name="screening" unicode="&#59258;" d="M511.784 347.452L330.764 528.47c-24.993 24.994-65.516 24.994-90.51 0-24.993-24.994-24.993-65.516 0-90.51L466.53 211.687c24.994-24.993 65.516-24.993 90.51 0l226.274 226.274c24.993 24.994 24.993 65.516 0 90.51-24.994 24.994-65.516 24.994-90.51 0l-181.02-181.02zM128 832h768c35.346 0 64-28.654 64-64v-768c0-35.346-28.654-64-64-64H128c-35.346 0-64 28.654-64 64V768c0 35.346 28.654 64 64 64z"  horiz-adv-x="1024" />

    
    <glyph glyph-name="situation-hex" unicode="&#59027;" d="M865.8 649.7c31.1-17.9 56.8-61.2 56.8-96.3v-338.2c0-35.1-25-78.4-56-96.3L568.9-50.700000000000045c-31-17.9-81.8-17.9-112.9 0L158.3 118.79999999999995c-31.1 17.9-56.1 61.2-56.1 96.3V553.3c0 35.1 25 78.4 56 96.3l297 168.7c31 17.9 81.8 17.9 112.9 0l297.7-168.6zM286.4 413.3c17-0.4 31 11.4 35.3 27.7 2.5 9.4 3.4 12 3.4 12 20.3 77.6 82.1 123.7 187.1 123.7 110 0 199.3-89.1 199.3-199s-89.3-199-199.3-199c-89.8 0-154.6 57.8-183.5 138.4-0.1 0.4 0.1 0.7 0.4 0.9l43.1 28 0.1 0.1c2.3 1.9 5.6 0.4 7.7-1.8l75.2-86.4c2.4-2.4 6-2.3 8.4 0.1l0.1 0.1 128.4 106.8c2.3 2.4 6 2.5 8.4 0.3l26.4-25.9c3.8-3.8 10.1-0.8 10.1 4.7V452c0 3.5-2.7 6.4-6 6.4l-101.8 0.1c-5.2 0.1-8-6.5-4.5-10.7l23-27.1c2.1-2.5 2.1-6.4-0.3-8.8l-0.1-0.1-82-67.4c-2.2-2.4-5.8-2.4-8.2-0.3l-0.1 0.1-62.4 65.6-0.1 0.1c-2.3 2.1-5.8 3.3-9.3 1.7-0.1 0-0.1-0.1-0.1-0.1L258.4 334c-0.3-0.2-7.3-4.4-7.3-4.6 3.5-18.5 12.5-31.2 19.7-48l0.1 0.1c42.7-89.6 123.9-152.1 224.9-158.4 157.4-9.7 288.1 121.5 277.4 278.5-9.2 136-122.5 243.4-261 243.4-131.2 0.1-240.7-69.8-259.3-194.2-3-19.7 13.5-36.8 33.5-37.5z"  horiz-adv-x="1024" />

    
    <glyph glyph-name="speediness-start" unicode="&#59031;" d="M865.8 650L568.1 818.7c-31.1 17.9-81.9 17.9-112.9 0L158.2 650c-31-17.9-56-61.2-56-96.3v-338.2c0-35.1 25-78.4 56.1-96.3L456-50.299999999999955c31.1-17.9 81.9-17.9 112.9 0l297.7 169.6c31 17.9 56 61.2 56 96.3V553.7c0 35.2-25.7 78.5-56.8 96.3z m-148.9-87.1l-199.1-449c-2.5-5.5-7.8-8.9-13.6-8.9-0.7 0-1.4 0.1-2.1 0.2-6.6 0.9-11.8 6.1-12.7 12.8l-29.1 207.7-207.4 29.1c-6.6 0.9-11.8 6.1-12.7 12.8-0.9 6.6 2.6 13 8.7 15.7l448.4 199.4c5.7 2.5 12.3 1.3 16.7-3.1 4.3-4.4 5.4-11 2.9-16.7z"  horiz-adv-x="1024" />

    
    <glyph glyph-name="subnet" unicode="&#59032;" d="M278.8 324.4c-11.4-18.1-27.9-32.7-47.4-41.9L407.5 107c8.3 20 22.3 37.1 40 49.3L278.8 324.4z m412.3-53.9l-115.5-115c17.5-12.4 31.3-29.7 39.4-49.9l124.5 124a151.63 151.63 0 0 0-48.4 40.9z m-79.5 398.3c-9.8-19.1-25-35-43.6-45.7l146.2-145.6c17 14.1 37.2 24.6 59.3 30.1L611.6 668.8z m-199.2 0l-183-182.3c19.8-8.8 36.6-23.1 48.3-41L455.9 623c-18.5 10.8-33.7 26.7-43.5 45.8zM296 384c0-21.9-6.3-42.4-17.2-59.6-11.4-18.1-27.9-32.7-47.4-41.9C217 275.79999999999995 200.9 272 184 272c-61.9 0-112 50.1-112 112s50.1 112 112 112c16.1 0 31.5-3.4 45.3-9.6 19.8-8.8 36.6-23.1 48.3-41 11.7-17.6 18.4-38.7 18.4-61.4z m-65.2 30.7c-5.9 9-14.3 16.1-24.2 20.5-6.9 3.1-14.6 4.8-22.7 4.8-30.9 0-56-25.1-56-56s25.1-56 56-56c8.5 0 16.5 1.9 23.7 5.2 9.8 4.6 18 11.9 23.7 20.9 5.4 8.6 8.6 18.9 8.6 29.8 0.1 11.4-3.3 22-9.1 30.8zM623 64c0-61.9-50.1-112-112-112s-112 50.1-112 112c0 15.2 3 29.8 8.5 43 8.3 20 22.3 37.1 40 49.3 18 12.4 39.9 19.7 63.5 19.7 24.1 0 46.4-7.6 64.7-20.5 17.5-12.4 31.3-29.7 39.4-49.9 5.1-12.9 7.9-26.9 7.9-41.6z m-64.2 30.7c-5.9 9-14.3 16.1-24.2 20.5-6.9 3.1-14.6 4.8-22.7 4.8-30.9 0-56-25.1-56-56s25.1-56 56-56c8.5 0 16.5 1.9 23.7 5.2 9.8 4.6 18 11.9 23.7 20.9 5.4 8.6 8.6 18.9 8.6 29.8 0.1 11.4-3.3 22-9.1 30.8zM624 720c0-18.5-4.5-35.9-12.4-51.2-9.8-19.1-25-35-43.6-45.7-16.5-9.6-35.6-15-56.1-15s-39.6 5.5-56.1 15c-18.5 10.7-33.7 26.6-43.6 45.7-7.9 15.3-12.4 32.8-12.4 51.2 0 61.9 50.1 112 112 112S624 781.9 624 720z m-65.2 30.7c-5.9 9-14.3 16.1-24.2 20.5-6.9 3.1-14.6 4.8-22.7 4.8-30.9 0-56-25.1-56-56s25.1-56 56-56c8.5 0 16.5 1.9 23.7 5.2 9.8 4.6 18 11.9 23.7 20.9 5.4 8.6 8.6 18.9 8.6 29.8 0.1 11.4-3.3 22-9.1 30.8zM960 352c0-88.4-71.6-160-160-160s-160 71.6-160 160 71.6 160 160 160 160-71.6 160-160zM800 485.3c-11.2 0-22.1-1.4-32.5-4-19.7-4.9-37.6-14.2-52.7-26.7-29.4-24.5-48.2-61.3-48.2-102.6 0-30.6 10.3-58.8 27.7-81.3 11.5-15 26.2-27.4 43-36.4 18.7-10 40-15.6 62.7-15.6 73.6 0 133.3 59.7 133.3 133.3S873.6 485.3 800 485.3zM800 464c-9.4 0-18.5-1.2-27.3-3.3-16.5-4.1-31.6-11.9-44.2-22.5-24.8-20.6-40.5-51.5-40.5-86.2 0-25.7 8.7-49.4 23.2-68.3 9.7-12.6 22-23 36.1-30.6C763.1 244.70000000000005 781 240 800 240c61.9 0 112 50.1 112 112s-50.1 112-112 112z m0-200c-14.9 0-29 3.7-41.4 10.3-11.1 5.9-20.8 14.1-28.4 24-11.4 14.9-18.2 33.5-18.2 53.7 0 27.2 12.4 51.6 31.8 67.7 10 8.3 21.8 14.4 34.8 17.7 6.9 1.7 14 2.6 21.4 2.6 48.6 0 88-39.4 88-88s-39.4-88-88-88zM864 352c0-35.3-28.7-64-64-64s-64 28.7-64 64 28.7 64 64 64 64-28.7 64-64z m-64 32c-17.7 0-32-14.3-32-32s14.3-32 32-32 32 14.3 32 32-14.3 32-32 32z"  horiz-adv-x="1024" />

    
    <glyph glyph-name="lecture-hex" unicode="&#59257;" d="M865.292 649.816c31.125-17.927 56.903-61.239 56.857-96.336v-338.219c0-35.082-24.995-78.394-56.104-96.32L568.07-50.55600000000004c-31.079-17.927-81.899-17.927-112.977 0L157.104 118.94000000000005C126.01 136.837 101 180.17999999999995 101 215.26099999999997V553.495c0 35.098 25.01 78.394 56.104 96.321L454.356 818.5550000000001c31.079 17.927 81.914 17.927 112.977 0l297.959-168.739zM676.536 608H621.61v-56c0.105-15.377-12.26-28-27.463-28H429.854c-15.203 0-27.568 12.623-27.463 28v56h-54.927c-15.1 0-27.464-12.623-27.464-28v-392c0-15.377 12.365-28 27.464-28h329.072c15.1 0 27.464 12.623 27.464 28V580c0 15.377-12.365 28-27.464 28zM432 448h160c8.837 0 16-7.163 16-16s-7.163-16-16-16H432c-8.837 0-16 7.163-16 16s7.163 16 16 16z m0-96h160c8.837 0 16-7.163 16-16s-7.163-16-16-16H432c-8.837 0-16 7.163-16 16s7.163 16 16 16z m0-96h160c8.837 0 16-7.163 16-16s-7.163-16-16-16H432c-8.837 0-16 7.163-16 16s7.163 16 16 16z m25.318 296h109.854c15.083 0 27.464 12.623 27.464 28v28H429.854v-28c0-15.428 12.381-28 27.464-28z"  horiz-adv-x="1024" />

    
    <glyph glyph-name="fullscreen" unicode="&#59259;" d="M160.762 138.02800000000002l210.611 210.61 105.66-105.659-210.644-210.643L362.667-64H64V234.85000000000002l96.762-96.822zM266.39 735.664L477.032 525.02 371.373 419.36l-210.61 210.61L64 533.152V832h298.667l-96.278-96.336z m491.222-703.328L546.968 242.98000000000002l105.659 105.66 210.61-210.61L960 234.84799999999996V-64H661.333l96.278 96.336z m105.627 597.636l-210.611-210.61-105.66 105.659 210.644 210.643L661.333 832H960v-298.85l-96.762 96.822z"  horiz-adv-x="1024" />

    
    <glyph glyph-name="point-position" unicode="&#59034;" d="M595.6 467.1c-22.6 22.5-51.8 33.7-83.3 33.7-33.7 0-60.8-11.2-83.3-33.7-24.7-22.5-36.1-51.8-36.1-83.3 0-33.7 11.2-60.8 36.1-85.6 22.5-22.5 49.5-33.7 83.3-33.7 31.5 0 60.8 11.2 83.3 33.7 22.5 24.7 36.1 51.8 36.1 85.6 0 31.5-13.5 60.8-36.1 83.3z m367.1-83.3c0 81.1-20.3 155.4-60.8 225.3-40.5 69.8-94.5 123.8-164.3 164.3C667.7 814 593.4 832 512.3 832c-81.1 0-157.7-18-225.3-58.6-22.9-13.3-44.1-28-63.7-44.3-0.2-0.2-0.4-0.3-0.6-0.5-39.8-33.2-73-72.8-100.1-119.5-40.5-69.8-60.8-144.2-60.8-225.3s20.3-157.7 60.8-227.5c40.5-67.6 94.5-121.6 164.3-162.1 63.2-37.9 134.1-58.1 209.4-60.5h0.9c5-0.1 9.9-0.2 14.9-0.2 20.1 0 39.8 1.2 59.1 3.5h0.3c43.5 5.4 84.9 16.8 124.5 34.7 23.4 10.5 46.2 23.3 68.4 38.4l0.4-0.4c52.5 35.2 97.2 81.2 130.9 134.8l-0.7 0.7c45.2 74.2 67.7 153 67.7 238.6z m-159.5-20.1l73.8-38.4c-13.5-78.8-47.3-146.4-103.6-202.7-58.6-56.3-126.2-92.3-205-103.6L532 90.5c-8.2 16.1-31.4 16.1-39.6 0L455.9 19c-78.8 11.2-146.4 45.1-205 101.3-56.1 58.6-92.1 126-103.4 204.9l73.8 38.4c16.1 8.4 15.9 31.5-0.3 39.6l-73.6 36.9c11.2 78.8 47.3 146.4 103.6 202.7 56.3 58.6 126.2 92.3 205 103.6l36.4-72.8c8.2-16.4 31.6-16.4 39.9 0l36.4 72.8c78.8-11.2 146.4-45.1 205-103.6C830 586.5 863.8 519 877.3 440.1l-73.5-36.9c-16.5-8-16.7-31.2-0.6-39.5zM512.3 500.9c-33.7 0-60.8-11.2-83.3-33.7-24.7-22.5-36.1-51.8-36.1-83.3 0-33.7 11.2-60.8 36.1-85.6 22.5-22.5 49.5-33.7 83.3-33.7 31.5 0 60.8 11.2 83.3 33.7 22.5 24.7 36.1 51.8 36.1 85.6 0 31.5-13.5 60.8-36.1 83.3-22.6 22.4-51.8 33.7-83.3 33.7z m83.3-33.8c-22.6 22.5-51.8 33.7-83.3 33.7-33.7 0-60.8-11.2-83.3-33.7-24.7-22.5-36.1-51.8-36.1-83.3 0-33.7 11.2-60.8 36.1-85.6 22.5-22.5 49.5-33.7 83.3-33.7 31.5 0 60.8 11.2 83.3 33.7 22.5 24.7 36.1 51.8 36.1 85.6 0 31.5-13.5 60.8-36.1 83.3z"  horiz-adv-x="1024" />

    
    <glyph glyph-name="group" unicode="&#59260;" d="M849.57 18.57299999999998c13.936 94.035-16.88 180.674-92.45 259.916 111.97 0 203.006-87.304 203.006-194.654v-11.64c0-55.94-50.958-51.939-110.557-53.622zM734.43 301.78700000000003c-95.232 62.9-37.614 36.594-154.907 73.317 81.963 46.774 110.107 83.562 117.293 218.065 87.154 0 157.986-70.588 157.986-157.34 0-86.752-33.22-134.042-120.373-134.042zM517.106-35.49699999999996H348.565c-158.328 0-283.69 0-283.69 80.095v16.667c0 153.71 127.22 278.713 283.69 278.713h168.543c156.47 0 283.69-125.004 283.69-278.713v-16.667c0-80.095-131.397-80.095-283.69-80.095h-0.001z m-92.395 396.772c-123.97 0-224.724 99.077-224.724 220.84 0 121.764 100.754 220.841 224.723 220.841 123.97 0 224.723-99.077 224.723-220.84 0-121.764-100.754-220.84-224.723-220.84z"  horiz-adv-x="1024" />

    
    <glyph glyph-name="send" unicode="&#59263;" d="M850.187 820.447c78.661 31.464 125.858-7.866 94.394-94.394L661.4-29.09400000000005c-15.733-39.33-47.197-47.197-70.796-7.866L433.283 206.89l259.582 361.84L331.023 309.15 95.04 474.337c-39.33 23.599-31.465 55.063 7.866 62.93l747.281 283.18z"  horiz-adv-x="1024" />

    
    <glyph glyph-name="print" unicode="&#59039;" d="M336 832h352c44.2 0 80-35.8 80-80v-32c0-44.2-35.8-80-80-80H336c-44.2 0-80 35.8-80 80v32c0 44.2 35.8 80 80 80zM128.5 128h-0.5c-35.3 0-64 28.7-64 64V496c0 44.2 35.8 80 80 80h736c44.2 0 80-35.8 80-80v-304c0-35.3-28.7-64-64-64s-64 28.7-64 64V448H193.4l-0.9-256.3c-0.1-35.2-28.7-63.7-64-63.7zM256 290.70000000000005v-261.3c0-51.6 35.8-93.3 80-93.3h352c44.2 0 80 41.8 80 93.3V290.70000000000005c0 51.6-35.8 93.3-80 93.3H336c-44.2 0-80-41.8-80-93.3zM680 0H344v64h336v-64z m0 128H344v64h336v-64z m0 128H344v64h336v-64z"  horiz-adv-x="1024" />

    
    <glyph glyph-name="list-cut" unicode="&#59040;" d="M128 832h768c35.3 0 64-28.7 64-64s-28.7-64-64-64H128c-35.3 0-64 28.7-64 64s28.7 64 64 64zM128 576h768c35.3 0 64-28.7 64-64s-28.7-64-64-64H128c-35.3 0-64 28.7-64 64s28.7 64 64 64zM128 320h768c35.3 0 64-28.7 64-64s-28.7-64-64-64H128c-35.3 0-64 28.7-64 64s28.7 64 64 64zM128 64h768c35.3 0 64-28.7 64-64s-28.7-64-64-64H128c-35.3 0-64 28.7-64 64s28.7 64 64 64z"  horiz-adv-x="1024" />

    
    <glyph glyph-name="image" unicode="&#59265;" d="M114.286 749.857c-22.723 0-41.143-18.42-41.143-41.143v-649.057c0-22.722 18.42-41.143 41.143-41.143h795.428c22.723 0 41.143 18.42 41.143 41.143V708.7139999999999c0 22.723-18.42 41.143-41.143 41.143H114.286z m0 73.143h795.428C972.833 823 1024 771.833 1024 708.7139999999999v-649.057c0-63.118-51.167-114.285-114.286-114.285H114.286C51.167-54.62800000000004 0-3.4610000000000127 0 59.65700000000004V708.7139999999999C0 771.833 51.167 823 114.286 823z m251.428-256c0 30.476-10.666 56.381-32 77.714-21.333 21.334-47.238 32-77.714 32s-56.381-10.666-77.714-32c-21.334-21.333-32-47.238-32-77.714s10.666-56.381 32-77.714c21.333-21.334 47.238-32 77.714-32s56.381 10.666 77.714 32c21.334 21.333 32 47.238 32 77.714z m512-236.702L661.61 552.143l-265.974-273.04-83.117 85.325-166.233-170.65v-102.39h731.428v238.91z"  horiz-adv-x="1024" />

    
    <glyph glyph-name="service" unicode="&#59041;" d="M144 448h32c44.2 0 80-35.8 80-80v-32c0-44.2-35.8-80-80-80h-32c-44.2 0-80 35.8-80 80v32c0 44.2 35.8 80 80 80zM144 128h32c44.2 0 80-35.8 80-80v-32c0-44.2-35.8-80-80-80h-32c-44.2 0-80 35.8-80 80v32c0 44.2 35.8 80 80 80zM144 768h32c44.2 0 80-35.8 80-80v-32c0-44.2-35.8-80-80-80h-32c-44.2 0-80 35.8-80 80v32c0 44.2 35.8 80 80 80zM869.9 256H410c-49.7 0-90 40.3-90 90v12c0 49.7 40.3 90 90 90h459.9c49.7 0 90-40.3 90-90v-12c0-49.7-40.3-90-90-90zM870-64H410.1c-49.7 0-90 40.3-90 90v12c0 49.7 40.3 90 90 90H870c49.7 0 90-40.3 90-90v-12c0-49.7-40.3-90-90-90zM870.9 576H411c-49.7 0-90 40.3-90 90v12c0 49.7 40.3 90 90 90h459.9c49.7 0 90-40.3 90-90v-12c0-49.7-40.3-90-90-90z"  horiz-adv-x="1024" />

    
    <glyph glyph-name="cancel" unicode="&#59269;" d="M474.353 512.1569999999999l60.9-60.9 59.195 59.196a209.599 209.599 0 0 0 21.744-18.803v-0.001 0.082l3.516-3.515c49.048-49.396 68.864-116.864 59.45-180.863l194.88-194.882c24.994-24.994 24.994-65.516 0-90.51-24.993-24.993-65.515-24.993-90.509 0L618.254 187.236 428.83-2.274000000000001c-82.879-82.301-216.637-82.301-299.517 0l-3.515 3.596c-82.397 82.873-82.397 216.736 0 299.608l133.573 133.333a295.937 295.937 0 0 1 21.417-115.837l-86.323-86.245c-44.737-44.808-44.737-117.381 0-162.189l3.515-3.597c44.853-44.702 117.413-44.702 162.266 0l189.422 189.427-61.018 61.018-59.166-59.236c-7.438 5.804-14.796 12.017-21.662 18.802l-3.515 3.515c-49.048 49.357-68.88 116.787-59.497 180.76L149.96 655.529c-24.993 24.994-24.993 65.516 0 90.51 24.994 24.993 65.516 24.993 90.51 0l165.214-165.214 189.499 189.423c82.833 82.336 216.603 82.336 299.435 0l3.597-3.597v-0.082c82.379-82.817 82.379-216.627 0-299.444L764.643 333.63a295 295 0 0 1-21.335 115.837l86.242 86.49c44.736 44.808 44.736 117.381 0 162.189l-3.515 3.515c-44.779 44.728-117.324 44.728-162.102 0l-189.58-189.504z"  horiz-adv-x="1024" />

    
    <glyph glyph-name="rightslip" unicode="&#59272;" d="M690.175 47.01599999999996L432.557 384l257.618 336.984c24.123 31.554 15.866 75.12-18.442 97.306C658.943 826.561 643.69 831 628.055 831h-16.093L256 384l355.962-447h16.093c41.94 0 75.939 31.27 75.939 69.844 0 14.38-4.826 28.409-13.82 40.172z"  horiz-adv-x="1024" />

    
    <glyph glyph-name="leftslip" unicode="&#59273;" d="M333.825 47.01599999999996L591.443 384 333.825 720.984c-24.123 31.554-15.866 75.12 18.442 97.306C365.057 826.561 380.31 831 395.945 831h16.093L768 384 412.038-63h-16.093c-41.94 0-75.939 31.27-75.939 69.844 0 14.38 4.826 28.409 13.82 40.172z"  horiz-adv-x="1024" />

    
    <glyph glyph-name="NOC" unicode="&#58952;" d="M257.225956 529.097244a63.712 63.712 0 0 0 3.512888 16.671289 64.967111 64.967111 0 0 0 8.197689 15.672178c20.632178 28.933689 60.829156 35.650133 89.762134 15.017956l261.501866-184.208356c14.363733-10.264178 34.306844 0.034133 34.306845 17.669689l-2.720711 362.906311L512.355556 853.321956 105.911467 618.687289v-469.339733l151.038577-87.213512V529.097244h0.275912zM779.781689 698.942578v-456.250311c0-12.916622-3.822933-25.9712-11.917511-37.3376-20.666311-28.933689-60.829156-35.650133-89.762134-14.983111l-258.126222 184.208355c-14.363733 10.264178-34.340978 0-34.340978-17.635555v-369.106489L512.355556-85.321956l406.444088 234.669512V618.687289l-139.017955 80.255289z"  horiz-adv-x="1024" />

    
    <glyph glyph-name="VDP" unicode="&#58955;" d="M740.706133 454.296889l97.223823 60.856889c33.931378 21.009067 63.3408 39.739022 88.410311 56.275911v1.534578c0 32.104533-17.0112 61.770667-44.625067 77.823289l-138.825244 80.700444-2.183823-277.191111zM306.427022 300.227556l-97.223822-60.856889c-43.203556-26.749867-79.151644-49.8432-107.989333-69.341156 6.325333-21.9904 20.832711-41.080178 41.070933-52.8448l161.9584-94.147555 2.183822 277.1904zM926.340267 195.008711V543.552l-365.162667-220.901689-1.513244 515.347911-3.039289 1.7664a88.723911 88.723911 0 0 1-89.250845 0l-325.090133-188.977778c-27.613867-16.052622-44.625067-45.718044-44.625067-77.823288v-375.985067l388.295822 234.896355 1.504-512.204088c22.966756-6.614756 47.952356-3.7952 69.165512 8.536177l325.090133 188.977778c27.615289 16.052622 44.626489 45.718756 44.625778 77.824z"  horiz-adv-x="1024" />

    
    <glyph glyph-name="TSA" unicode="&#58957;" d="M958.9056 738.439822S694.614756 648.668444 641.378133 630.338133c-53.237333-18.330311-74.016711-57.2544-79.101155-95.6736-4.317867-32.627911-42.010311-531.759644-48.024889-583.826489-1.367467-13.471289-1.986844-22.078578-2.252089-27.5008-0.265956 5.422222-0.886044 14.030222-2.253511 27.5008-3.2 27.682844-15.352889 181.757867-26.6816 324.892445-9.979022 126.070756-19.3216 243.655822-21.345422 258.934044-5.083733 38.419911-25.861689 77.343289-79.098311 95.6736C329.385244 648.668444 65.0944 738.439822 65.0944 738.439822l18.455467-481.7536s-3.261867-45.197511 52.733866-83.619555c55.196444-37.868089 366.705067-252.122311 375.6032-258.242134 0.007822-0.088889 0.014222-0.145778 0.014223-0.145777l0.098844 0.068266 0.098844-0.068266s0.0064 0.0576 0.014223 0.145777c8.895289 6.1184 320.403911 220.374044 375.600355 258.242134 55.996444 38.422044 52.731733 83.619556 52.731734 83.619555l18.460444 481.7536zM512.182756 682.449778c4.764444-0.109511 19.395556-0.130844 41.366755 2.692978 32.671289 4.349156 405.291378 53.4848 405.291378 53.4848L512.117333 853.321956 65.523911 738.627556s372.619378-49.135644 405.288533-53.4848c21.973333-2.823822 36.605156-2.802489 41.370312-2.692978z"  horiz-adv-x="1024" />

    
    <glyph glyph-name="OMS" unicode="&#58959;" d="M308.342044 389.317689l-0.101688 49.583644c-0.069689 34.1568 24.046933 76.126578 53.592888 93.265778l96.015645 55.697778-218.007467 125.842489-96.510578-55.984356c-29.545244-17.1392-53.661867-59.108978-53.592177-93.265778l0.745244-363.356444c0.0704-34.157511 24.3584-76.027733 53.974756-93.045333L307.555556 14.336l0.786488 374.981689zM555.386311 593.1776c3.623822-1.447822 7.107556-3.060622 10.333867-4.914489l96.549689-55.480178c29.615644-17.0176 53.904356-58.888533 53.974044-93.045333l0.228978-111.351467c0.000711-0.273778-0.031289-0.558222-0.034133-0.833422l218.019555 125.8496-0.231111 112.786489c-0.0704 34.1568-24.359111 76.027022-53.974756 93.045333L565.202489 840.267378c-29.615644 17.0176-78.020978 16.918756-107.566222-0.220445L293.080178 744.590222l262.306133-151.412622zM628.925867 215.424711l-62.368-36.178489c-1.068089-0.620089-2.212267-1.169067-3.328711-1.744355l-8.064-4.655645-0.455112 0.788622c-29.467022-11.286044-69.792-9.507556-95.7184 5.390223l-94.576355 54.345244-0.526933-251.404089 95.620977-54.945422c29.616356-17.018311 78.020978-16.918756 107.566223 0.220444l314.304711 182.3232c29.545244 17.1392 53.661867 59.108978 53.592177 93.265778l-0.387555 189.031822-305.659022-176.437333z"  horiz-adv-x="1024" />

    
    <glyph glyph-name="mobile" unicode="&#59042;" d="M744.1 832H279.9C249 832 224 807.7 224 777.7v-787.5c0-30 25-54.3 55.9-54.3h464.2c30.9 0 55.9 24.3 55.9 54.3V777.7c0 30-25 54.3-55.9 54.3z m-283.9-67.9h103.6c8.2 0 14.8-6.4 14.8-14.4 0-7.9-6.6-14.4-14.8-14.4H460.2c-8.2 0-14.8 6.4-14.8 14.4s6.7 14.4 14.8 14.4zM512-21.399999999999977c-25.3 0-45.9 19.9-45.9 44.5s20.5 44.5 45.9 44.5c25.3 0 45.9-19.9 45.9-44.5s-20.6-44.5-45.9-44.5zM744 104H280V688h464v-584z"  horiz-adv-x="1024" />

    
    <glyph glyph-name="change" unicode="&#58964;" d="M568.249 818.5550000000001l297.904-168.739c31.119-17.927 56.893-61.239 56.847-96.336v-338.219c0-35.082-24.99-78.394-56.094-96.321l-297.92-169.495c-31.073-17.927-81.883-17.927-112.956 0L158.094 118.94000000000005C127.006 136.837 102 180.17899999999997 102 215.26099999999997V553.495c0 35.097 25.006 78.394 56.094 96.321L455.292 818.5550000000001c31.073 17.927 81.899 17.927 112.957 0zM537.73 191.08299999999997c7.066 0 8.758 4.087 3.762 9.082l-58.907 58.892c-4.997 4.995-14.866 9.083-21.931 9.084l-51.385 0.007c-7.065 0.001-12.846 5.783-12.846 12.848V436.104h83.5c17.663 0 21.896 10.219 9.406 22.709L380.593 567.549c-12.49 12.49-32.928 12.49-45.418 0L226.439 458.813c-12.49-12.49-8.258-22.709 9.406-22.709h83.5V204.21400000000006l0.003-0.001c0.035-7.133 5.731-12.915 12.825-13.111l0.018-0.019H537.73z m259.831 118.104c12.49 12.49 8.257 22.709-9.407 22.708h-83.5V563.7850000000001l-0.003 0.001c-0.035 7.133-5.731 12.916-12.825 13.111l-0.018 0.019H486.269c-7.065 0-8.758-4.087-3.761-9.082l58.907-58.892c4.997-4.995 14.866-9.083 21.931-9.084l51.385-0.007c7.065-0.001 12.846-5.783 12.846-12.848v-155.107h-83.5c-17.663 0-21.896-10.219-9.406-22.709l108.736-108.736c12.49-12.49 32.928-12.49 45.418 0l108.736 108.736z"  horiz-adv-x="1024" />

    
    <glyph glyph-name="attention" unicode="&#59276;" d="M940 169L612 708c-25.07 44.742-58.718 70-101 70-39.102 0-75.562-25.258-98-70L85 169c-25.418-41.584-28.224-86.432-6-123 22.686-36.384 59.115-56 107-56h653c64.849 0 95.695 28.058 107 53 19.542 39.568 19.542 81.63-6 126z m-64-83c-2.624-8.191-16.632-11-36-11H186c-30.713 0-33.505 8.41-36 14-5.925 8.404-5.925 19.593 5 42l328 538c11.692 16.816 20.112 28 29 28 7.902 0 16.347-8.396 25-25l331-541c10.995-19.603 13.801-33.591 8-45zM511 217c-25.464 0-48-22.418-48-50 0-25.642 19.714-48 48-48 28.067 0 50.553 22.358 48 48-0.234 27.582-19.958 50-48 50z m0.982 297c-35.211 0-64-20.513-64-45.511l19.429-171.48c-0.248-52.126 92.621-52.126 92.571 0l16 171.48c0 24.998-28.795 45.511-64 45.511z"  horiz-adv-x="1024" />

    
    <glyph glyph-name="maximize" unicode="&#59277;" d="M210.94 173.16700000000003l135.24 135.24c25.009 25.01 65.556 25.01 90.565 0 25.01-25.008 25.01-65.556 0-90.564L301.477 82.57399999999996 384 0H160c-17.673 0-32 14.327-32 32V256.15700000000004l82.94-82.99z m90.537 512.259l135.268-135.269c25.01-25.008 25.01-65.556 0-90.565-25.009-25.009-65.556-25.009-90.565 0L210.94 594.8330000000001 128 511.843V736c0 17.673 14.327 32 32 32h224l-82.523-82.574z m421.046-602.852L587.255 217.84299999999996c-25.01 25.008-25.01 65.556 0 90.565 25.009 25.009 65.556 25.009 90.565 0l135.24-135.241 82.94 82.99V32c0-17.673-14.327-32-32-32H640l82.523 82.574z m90.538 512.259L677.82 459.593c-25.009-25.01-65.556-25.01-90.565 0-25.01 25.008-25.01 65.556 0 90.564l135.268 135.269L640 768h224c17.673 0 32-14.327 32-32v-224.157l-82.94 82.99z"  horiz-adv-x="1024" />

    
    <glyph glyph-name="diagnosis" unicode="&#59278;" d="M810.688 432.384c-81.472 0-149.376-69.504-149.376-149.376 0-58.24 36.352-110.72 87.744-134.976-24.512-66.304-87.552-113.856-162.368-113.856-85.12 0-154.88 61.44-170.048 142.272 19.712 27.456 36.416 62.4 42.816 87.872 144.896 95.552 201.856 385.536 201.856 417.024 0 53.824-99.584 149.312-99.584 149.312h-34.752c-35.84 7.104-72.576-12.928-85.12-48.832-13.696-39.232 6.72-81.856 45.504-95.488 8.128-2.816 16.448-3.904 24.64-3.84v-1.28h49.728C560.896 635.52 505.92 332.79999999999995 362.688 332.79999999999995c-143.04 0-199.104 348.416-199.104 348.416h32.32c29.632-6.528 61.248 5.76 78.528 33.344 21.888 35.52 11.584 82.048-23.104 104.32-11.904 7.616-24.96 11.136-38.016 11.392v0.32h-49.728S64 747.712 64 694.2719999999999c0-31.744 58.048-335.36 205.568-431.36 10.112-28.096 28.288-67.776 48.896-95.808 20.096-131.328 131.328-232.512 268.224-232.512 127.36 0 232.768 87.36 263.04 205.184C912.704 157.76 960 216.51199999999994 960 283.00800000000004c0 79.808-67.776 149.376-149.312 149.376z m0-199.104c-27.584 0-49.792 22.272-49.792 49.728 0 27.584 22.272 49.792 49.792 49.792 27.52 0 49.728-22.272 49.728-49.792 0-27.52-22.208-49.728-49.728-49.728z"  horiz-adv-x="1024" />

    
    <glyph glyph-name="tasklist" unicode="&#59279;" d="M823.808 817H200.192C125.376 817 64 755.2139999999999 64 680.892v-592.784C64 13.337999999999965 125.376-48 200.192-48h623.616C898.624-48 960 13.337999999999965 960 88.10799999999995V680.892C960 755.2139999999999 902.656 817 823.808 817zM894 83.30700000000002C894 43.899 863.1 13 823.69 13H200.31C160.9 13 130 43.89999999999998 130 83.30700000000002V680.693C130 720.101 160.9 751 200.31 751h623.38c39.41 0 70.31-30.9 70.31-70.307v-597.386zM393.017 601.711L303.4 514.3389999999999l-43.836 43.927c-12.971 13-34.337 13-46.835-4-12.972-12.999-16.972-39.962-4-48.927l70.226-70.374c4.473-4.483 12.972-8.965 26.39-8.965 12.972 0 14.638 1.696 26.392 8.965L450.27 553.749c12.972 12.999 6.683 45.2-6.289 54.165-26.39 13-37.994 2.762-50.965-6.203zM494.94 549c-21.972 0-30.94-13.029-30.94-31 0-22.014 13.004-31 30.94-31h303.12c21.972 0 30.94 13.029 30.94 31s-13.452 31-30.94 31H494.94zM315 351c-57.009 0-101-43.773-101-100.5S257.991 150 315 150s101 43.773 101 100.5c0 61.193-48.48 100.5-101 100.5z m-1-131c-21.987 0-35 13.013-35 35 0 21.987 13.013 35 35 35 21.987 0 35-13.013 35-35 0-21.987-17.5-35-35-35z m484.06 66H494.94c-21.972 0-30.94-13.029-30.94-31s13.004-31 30.94-31h303.12c21.972 0 30.94 13.029 30.94 31s-13.452 31-30.94 31z"  horiz-adv-x="1024" />

    
    <glyph glyph-name="document" unicode="&#59280;" d="M256 703v-640h512V596.3330000000001L640 703H256zM192 831h512l192-167.625v-670.5c0-30.86-28.654-55.875-64-55.875H192c-35.346 0-64 25.016-64 55.875v782.25C128 805.985 156.654 831 192 831z m128-255.875h256v-64H320v64zM320 447h384v-64H320v64z m0-128h384v-64H320v64z"  horiz-adv-x="1024" />

    
    <glyph glyph-name="worklist" unicode="&#59281;" d="M192 767.1V-1h640.2V767.1h-73.738l-74.874-76.418C661.297 667.96 630.85 655.1 599.1 655.1h-174c-31.83 0-62.182 12.843-84.514 35.61l-74.848 76.39H192z m-9.1 64h87c14.5 0 28.5-5.9 38.8-16.4l77.6-79.2c10.3-10.5 24.2-16.4 38.8-16.4h174c14.5 0 28.5 5.9 38.8 16.4l77.6 79.2c10.3 10.5 24.2 16.4 38.8 16.4h87c30.3 0 54.9-25.1 54.9-56V-9c0-30.9-24.6-56-54.9-56H182.9c-30.3 0-54.9 25.1-54.9 56V775.1c0 30.9 24.6 56 54.9 56zM416 831h191c17.789 0 32.587-13.7 33-31 0.487-18.3-14.011-33-32-33H417c-17.789 0-32.587 13.7-33 31-0.487 18.2 14.011 33 32 33zM288 512c-17.673 0-32-14.327-32-32 0-17.673 14.327-32 32-32h448c17.673 0 32 14.327 32 32 0 17.673-14.327 32-32 32H288z m0-128c-17.673 0-32-14.327-32-32 0-17.673 14.327-32 32-32h448c17.673 0 32 14.327 32 32 0 17.673-14.327 32-32 32H288z m0-128c-17.673 0-32-14.327-32-32 0-17.673 14.327-32 32-32h448c17.673 0 32 14.327 32 32 0 17.673-14.327 32-32 32H288z"  horiz-adv-x="1024" />

    
    <glyph glyph-name="interdict" unicode="&#59047;" d="M407.2 728L281.3 488H168v6.1L290.7 728zM630.5 728L504.6 488H388.1L514 728zM847.3 704.8L733.6 488H614.7l125.9 240H804c18.1 0 34-9.2 43.3-23.2zM872.5 832h-721C103.2 832 64 792.8 64 744.5V-12c0-28.7 23.3-52 52-52 14.4 0 27.4 5.8 36.8 15.2 9.4 9.4 15.2 22.4 15.2 36.8V144h688v-156c0-28.7 23.3-52 52-52 14.4 0 27.4 5.8 36.8 15.2 9.4 9.4 15.2 22.4 15.2 36.8V744.5c0 48.3-39.2 87.5-87.5 87.5zM856 256H168V384h688v-128z m0 232H168V676c0 28.7 23.3 52 52 52h584c18.1 0 34-9.2 43.3-23.2 5.5-8.2 8.7-18.1 8.7-28.8v-188z"  horiz-adv-x="1024" />

    
    <glyph glyph-name="safety" unicode="&#59048;" d="M512 832l384-162.3v-245.9c0-56.4-9.7-111.1-29.1-164.2-19.4-53.1-45.9-101.1-79.5-143.8-34.9-44.7-75.7-82.6-122.4-113.7C618.3-29 567.3-51 512-64c-55.3 13-106.3 35-153 66.1-46.7 31.1-87.5 69-122.4 113.7-33.6 42.8-60.1 90.7-79.5 143.8-19.4 53.1-29.1 107.9-29.1 164.2V669.7L512 832z m0-447V743.6L212.9 616.3V385H512v-363.5c40.1 11 77 28.3 110.6 52 33.6 23.6 63.2 51.7 88.8 84.1 26.3 31.7 48 66.9 65.2 105.4 17.1 38.5 28.6 79.2 34.5 122H512z"  horiz-adv-x="1024" />

    
    <glyph glyph-name="property" unicode="&#59049;" d="M494.5 832.1l-410-196.8c-27.4-13.1-27.4-49.4 0-62.5l410-196.8c11-5.3 24-5.3 34.9 0l410 196.8c27.4 13.1 27.4 49.4 0 62.5l-410 196.8c-10.9 5.3-23.9 5.3-34.9 0zM929.1 348.5L538.3 158c-16.5-8-36.1-8-52.5 0L94.9 348.5c-31 15.1-40.5 52.7-19.9 79.3 16.6 21.5 47.5 28.3 72.6 16.1l338.1-165.7c16.5-8.1 36.2-8.1 52.8 0l338.1 165.7c25.1 12.3 55.9 5.5 72.6-16.1 20.4-26.6 11-64.2-20.1-79.3zM929.1 132.5L538.3-58c-16.5-8-36.1-8-52.5 0L94.9 132.5c-31 15.1-40.5 52.7-19.9 79.3 16.6 21.5 47.5 28.3 72.6 16.1l338.1-165.7c16.5-8.1 36.2-8.1 52.8 0l338.1 165.7c25.1 12.3 55.9 5.5 72.6-16.1 20.4-26.6 11-64.2-20.1-79.3z"  horiz-adv-x="1024" />

    
    <glyph glyph-name="VOC" unicode="&#59282;" d="M474 814l-2-291c0.112-21.056-10.608-40.516-28-52l-83-52-244 144c-9.25 5.537-14.944 15.53-15 26-0.056 11.19 5.534 21.243 15 27L459 823c2.953 1.447 6.817 1.48 10 0 3.096-2.175 5.023-5.578 5-9z m73 17l315-192c27.834-17.403 45.003-48.204 45-81v-273c-0.02-3.506-1.955-6.862-5-9-3.197-1.468-7.028-1.443-10 0L569 468c-22.982 13.799-37.014 38.676-37 66V822c-0.001 3.477 1.948 6.87 5 9 3.254 1.489 7.123 1.436 10 0z m135-138v-58l76-44v56l-76 46z m-108 66v-30c0.015-17.483 9.162-33.426 24-42l52-30v56l-76 46z m295-238v30c-0.003 17.492-9.156 33.438-24 42l-52 30v-56l76-46zM549-47l2 292c-0.112 20.86 10.608 40.366 28 51l83 53 244-144c9.25-5.89 14.944-15.906 15-27 0.056-10.619-5.534-20.694-15-26L564-56c-2.939-1.448-6.803-1.48-10 0-3.082 2.182-5.009 5.593-5 9z m-73-16L161 129c-27.823 17.397-44.995 48.192-45 81V483c0.02 3.506 1.955 6.862 5 9 3.195 1.468 7.027 1.443 10 0l323-192c22.949-13.784 37.002-38.664 37-66v-288c0.001-3.477-1.947-6.87-5-9-3.253-1.489-7.121-1.436-10 0zM341 75v58l-76 44v-56l76-46z m108-66v30c0 17.528-9.15 33.462-24 42l-52 30v-56l76-46zM155 247v-30c0-17.49 9.15-33.435 24-42l52-30v56l-76 46z"  horiz-adv-x="1024" />

    
    <glyph glyph-name="reset" unicode="&#59283;" d="M305.051 480.235l79.208-61.911c12.435-9.72 14.64-27.683 4.924-40.124a28.57 28.57 0 0 0-19.032-10.773l-243.485-29.91c-15.663-1.923-29.918 9.22-31.84 24.889L64.928 605.998c-1.924 15.67 9.214 29.93 24.877 31.855a28.563 28.563 0 0 0 21.072-5.847l75.773-59.227 108.774 108.746c2.276 2.323 4.991 4.512 8.056 6.703 2.977 2.058 5.955 4.03 8.757 5.912 40.276 32.893 84.145 57.421 131.514 73.846 47.282 16.468 95.09 24.177 143.423 23.258 48.244-0.965 95.002-10.687 140.27-29.214 45.179-18.53 85.63-45.599 121.268-81.206 36.163-36.09 63.305-76.912 81.517-122.463 18.389-45.462 27.932-92.328 28.895-140.638 0.876-48.31-6.83-96.358-23.29-144.23-16.286-47.83-41.415-91.89-75.125-132.23a224.255 224.255 0 0 0-5.254-7.357c-1.752-2.146-3.679-4.38-5.954-6.702L727.793 5.485000000000014c-7.968-7.971-17.25-14.41-27.843-19.316-10.508-4.905-21.19-8.015-32.31-9.152a94.024 94.024 0 0 0-32.31 2.102c-10.507 2.585-19.35 7.401-26.355 14.454-7.093 7.007-11.996 15.68-14.797 26.06-2.802 10.249-3.503 20.805-2.102 31.578 1.401 10.818 4.466 21.374 9.106 31.668 4.728 10.335 11.033 19.446 19 27.417l109.712 108.36c24.866 24.877 43.692 52.82 56.564 84.007 12.958 31.228 19.788 62.763 20.752 94.65 0.964 31.841-4.29 62.982-15.848 93.203-11.471 30.221-29.159 57.334-53.06 81.247-22.504 22.513-47.81 39.376-75.827 50.677-28.194 11.212-57.439 17.212-87.647 17.914-30.208 0.7-59.98-3.986-89.223-14.06-29.333-10.073-56.651-25.447-81.957-46.077-0.963-0.963-1.4-1.663-1.4-2.146 0-0.273-32.399-32.885-97.197-97.836z"  horiz-adv-x="1024" />

    
    <glyph glyph-name="radar" unicode="&#59284;" d="M471.33 454.46V562.4780000000001c-93.376-21.282-154.554-110.957-140.306-205.663 14.247-94.705 99.1-162.41 194.606-155.278C621.136 208.66999999999996 694.991 288.22799999999995 695.013 384c0 37.294-11.123 72.798-31.661 102.914a40.677 40.677 0 1 0 67.226 45.814A263.274 263.274 0 0 0 776.352 384c0-146.004-118.348-264.352-264.352-264.352-146.004 0-264.352 118.348-264.352 264.352 0 132.176 96.997 241.679 223.682 261.24V747.79C288.318 727.556 145.974 572.4 145.974 384c0-202.148 163.878-366.026 366.026-366.026 202.148 0 366.026 163.878 366.026 366.026 0 83.27-27.839 162.17-78.249 226.224a40.67 40.67 0 1 0 63.913 50.308A445.555 445.555 0 0 0 959.365 384c0-247.067-200.298-447.365-447.365-447.365S64.635 136.933 64.635 384 264.933 831.365 512 831.365c11.225 0 21.392-4.555 28.753-11.917 7.362-7.36 11.917-17.528 11.917-28.753V454.46c31.882-18.407 47.426-55.934 37.897-91.494-9.528-35.56-41.753-60.287-78.567-60.287-36.814 0-69.04 24.727-78.567 60.287-9.529 35.56 6.015 73.087 37.897 91.494z"  horiz-adv-x="1024" />

    
    <glyph glyph-name="celvezu" unicode="&#59141;" d="M170.88 757.33504c-22.4 0-37.33504-14.93504-37.33504-37.33504v-186.66496c0-22.4 14.93504-37.33504 37.33504-37.33504h186.66496c22.4 0 37.33504 14.93504 37.33504 37.33504V720c0 22.4-14.93504 37.33504-37.33504 37.33504H170.88z m0 74.66496h186.66496c63.46752 0 112-48.53248 112-112v-186.66496c0-63.46752-48.53248-112-112-112H170.88c-63.46752 0-112 48.53248-112 112V720c0 63.46752 48.53248 112 112 112z m0-560c-22.4 0-37.33504-14.93504-37.33504-37.33504v-186.66496c0-22.4 14.93504-37.33504 37.33504-37.33504h186.66496c22.4 0 37.33504 14.93504 37.33504 37.33504v186.66496c0 22.4-14.93504 37.33504-37.33504 37.33504H170.88z m0 74.66496h186.66496c63.46752 0 112-48.53248 112-112v-186.66496c0-63.46752-48.53248-112-112-112H170.88c-63.46752 0-112 48.53248-112 112v186.66496c0 63.46752 48.53248 112 112 112z m485.33504 410.67008c-22.4 0-37.33504-14.93504-37.33504-37.33504v-186.66496c0-22.4 14.93504-37.33504 37.33504-37.33504h186.66496c22.4 0 37.33504 14.93504 37.33504 37.33504V720c0 22.4-14.93504 37.33504-37.33504 37.33504h-186.66496z m0 74.66496h186.66496c63.46752 0 112-48.53248 112-112v-186.66496c0-63.46752-48.53248-112-112-112h-186.66496c-63.46752 0-112 48.53248-112 112V720c0 63.46752 48.53248 112 112 112z m0-560c-22.4 0-37.33504-14.93504-37.33504-37.33504v-186.66496c0-22.4 14.93504-37.33504 37.33504-37.33504h186.66496c22.4 0 37.33504 14.93504 37.33504 37.33504v186.66496c0 22.4-14.93504 37.33504-37.33504 37.33504h-186.66496z m0 74.66496h186.66496c63.46752 0 112-48.53248 112-112v-186.66496c0-63.46752-48.53248-112-112-112h-186.66496c-63.46752 0-112 48.53248-112 112v186.66496c0 63.46752 48.53248 112 112 112z"  horiz-adv-x="1024" />

    
    <glyph glyph-name="arrow-right" unicode="&#58884;" d="M941.248 429.504l-226.304 226.304a63.936 63.936 0 1 1-90.496-90.496L741.696 448H128a64 64 0 0 1 0-128h612.736l-117.248-117.248a63.936 63.936 0 1 1 90.496-90.496l222.08 222.08a63.936 63.936 0 0 1 5.184 95.168z"  horiz-adv-x="1024" />

    
    </font>
</defs>
</svg>
