<?xml version="1.0" encoding="UTF-8"?>
<svg width="64px" height="64px" viewBox="0 0 64 64" version="1.1" xmlns="http://www.w3.org/2000/svg" xmlns:xlink="http://www.w3.org/1999/xlink">
    <!-- Generator: Sketch 49.3 (51167) - http://www.bohemiancoding.com/sketch -->
    <title>选择文件</title>
    <desc>Created with Sketch.</desc>
    <defs>
        <path d="M56.3530783,48.4180343 L14.5841985,48.4180343 C12.9379505,48.4180343 11.6007071,47.0807908 11.6007071,45.4345429 L11.6007071,12.6267926 C11.6007071,10.9805447 12.9379505,9.6433012 14.5841985,9.6433012 L26.9230665,9.6433012 C27.6050074,9.6433012 28.2656377,9.87771838 28.798404,10.3039314 L35.3567575,15.6049564 L56.3530783,15.6049564 C57.9993262,15.6049564 59.3365697,16.9421998 59.3365697,18.5884478 L59.3365697,45.4292152 C59.3365697,47.0807908 57.9993262,48.4180343 56.3530783,48.4180343 Z" id="path-1"></path>
        <path d="M53.3333333,59.8825397 L3.55555556,59.8825397 C1.59365079,59.8825397 0,58.2888889 0,56.3269841 L0,17.2285714 C0,15.2666667 1.59365079,13.6730159 3.55555556,13.6730159 L18.2603175,13.6730159 C19.0730159,13.6730159 19.8603175,13.952381 20.4952381,14.4603175 L28.3111111,20.7777778 L53.3333333,20.7777778 C55.2952381,20.7777778 56.8888889,22.3714286 56.8888889,24.3333333 L56.8888889,56.3206349 C56.8888889,58.2888889 55.2952381,59.8825397 53.3333333,59.8825397 Z" id="path-2"></path>
        <rect id="path-3" x="7.11111111" y="29.6666667" width="42.6666667" height="1.77777778" rx="0.888888889"></rect>
    </defs>
    <g id="组件" stroke="none" stroke-width="1" fill="none" fill-rule="evenodd">
        <g id="Artboard-2">
            <g id="Group-9">
                <g id="Shape" fill-rule="nonzero" transform="translate(35.468638, 29.030668) rotate(17.000000) translate(-35.468638, -29.030668) ">
                    <use fill="#F6F6F8" fill-rule="evenodd" xlink:href="#path-1"></use>
                    <path stroke="#CFD6E1" stroke-width="2" d="M56.3530783,47.4180343 C57.4475889,47.4180343 58.3365697,46.5279573 58.3365697,45.4292152 L58.3365697,18.5884478 C58.3365697,17.4944846 57.4470415,16.6049564 56.3530783,16.6049564 L35.0031483,16.6049564 L34.728141,16.3826718 L28.173709,11.0848002 C27.8163273,10.7988949 27.3754785,10.6433012 26.9230665,10.6433012 L14.5841985,10.6433012 C13.4902353,10.6433012 12.6007071,11.5328294 12.6007071,12.6267926 L12.6007071,45.4345429 C12.6007071,46.5285061 13.4902353,47.4180343 14.5841985,47.4180343 L56.3530783,47.4180343 Z"></path>
                </g>
                <g id="Shape" fill-rule="nonzero">
                    <use fill="#FFFFFF" fill-rule="evenodd" xlink:href="#path-2"></use>
                    <path stroke="#CFD6E1" stroke-width="2" d="M53.3333333,58.8825397 C54.7436586,58.8825397 55.8888889,57.7358973 55.8888889,56.3206349 L55.8888889,24.3333333 C55.8888889,22.9237133 54.7429533,21.7777778 53.3333333,21.7777778 L27.9575019,21.7777778 L27.6824946,21.5554932 L19.870543,15.2411863 C19.4107382,14.8733424 18.8431464,14.6730159 18.2603175,14.6730159 L3.55555556,14.6730159 C2.14593554,14.6730159 1,15.8189514 1,17.2285714 L1,56.3269841 C1,57.7366041 2.14593554,58.8825397 3.55555556,58.8825397 L53.3333333,58.8825397 Z"></path>
                </g>
                <g id="Rectangle-11">
                    <use fill="#CDD4DF" fill-rule="evenodd" xlink:href="#path-3"></use>
                    <rect stroke="#CFD6E1" stroke-width="1" x="7.61111111" y="30.1666667" width="41.6666667" height="1" rx="0.5"></rect>
                </g>
            </g>
        </g>
    </g>
</svg>